<?xml version="1.0" encoding="utf-8"?>
<!-- Generator: Adobe Illustrator 17.0.0, SVG Export Plug-In . SVG Version: 6.00 Build 0)  -->
<!DOCTYPE svg PUBLIC "-//W3C//DTD SVG 1.1//EN" "http://www.w3.org/Graphics/SVG/1.1/DTD/svg11.dtd">
<svg version="1.1" id="Layer_1" xmlns="http://www.w3.org/2000/svg" xmlns:xlink="http://www.w3.org/1999/xlink" x="0px" y="0px"
	 width="1400px" height="1400px" viewBox="0 0 1400 1400" enable-background="new 0 0 1400 1400" xml:space="preserve">
<rect fill-rule="evenodd" clip-rule="evenodd" fill="#1A8459" width="1400" height="1400"/>
<g>
	<g>
		<path fill-rule="evenodd" clip-rule="evenodd" fill="#FFFFFF" d="M699.3,294.9c223.8,0,405.2,181.4,405.2,405.2
			s-181.4,405.2-405.2,405.2c-223.8,0-405.2-181.4-405.2-405.2S475.4,294.9,699.3,294.9L699.3,294.9z"/>
		<path fill-rule="evenodd" clip-rule="evenodd" fill="#79AA3F" d="M1085.3,823.4c-52.2,163.5-205.3,282-386.1,282
			c-180.8,0-334-118.4-386.1-282H1085.3z"/>
	</g>
	<g>
		<path fill-rule="evenodd" clip-rule="evenodd" fill="#1A8459" d="M699.3,388.4c172.2,0,311.7,139.6,311.7,311.7
			c0,172.2-139.6,311.7-311.7,311.7c-172.2,0-311.8-139.5-311.8-311.7C387.5,528,527.1,388.4,699.3,388.4L699.3,388.4z"/>
		<path fill-rule="evenodd" clip-rule="evenodd" fill="#CCFF66" d="M699.3,398.9c166.4,0,301.2,134.9,301.2,301.3
			s-134.9,301.3-301.2,301.3c-166.4,0-301.3-134.9-301.3-301.3S532.9,398.9,699.3,398.9L699.3,398.9z"/>
		<path fill-rule="evenodd" clip-rule="evenodd" fill="#97C43D" d="M934.8,887.9c-1.7,2.2-3.5,4.3-5.3,6.4H468.9
			c-1.8-2.1-3.6-4.2-5.3-6.4H934.8z M921.4,903.6c-2,2.2-4,4.3-6.1,6.4H483.2c-2.1-2.1-4.1-4.3-6.1-6.4H921.4z M905.9,919.3
			c-2.3,2.2-4.7,4.3-7.1,6.4H499.7c-2.4-2.1-4.8-4.2-7.1-6.4H905.9z M887.8,935.1c-2.7,2.2-5.5,4.3-8.2,6.4H518.9
			c-2.8-2.1-5.5-4.2-8.2-6.4H887.8z M866.4,950.8c-3.3,2.2-6.6,4.3-10,6.4H542.1c-3.4-2.1-6.7-4.2-10-6.4H866.4z M840,966.5
			c-4.2,2.2-8.5,4.4-12.9,6.4H571.3c-4.4-2-8.6-4.2-12.9-6.4H840z M805.1,982.3c-6.2,2.3-12.6,4.5-19,6.4H612.4
			c-6.4-1.9-12.8-4.1-19-6.4H805.1z M744.8,998c-14.8,2.2-30,3.4-45.5,3.4c-15.5,0-30.7-1.2-45.5-3.4H744.8z"/>
	</g>
</g>
<g>
	<g>
		<path fill-rule="evenodd" clip-rule="evenodd" fill="#91C6FA" d="M980.1,408c36.8,35.4,67,77.7,88.3,124.8H330.1
			c21.6-47.5,52-90.1,89.2-125.7l62.5-25.7l34.8-0.1l44.1-19.1l8.1-1.4l25.7-20.3l16.9-12.2l12.2-15.6h10.8l5.4,9.5l13.5,7.4
			l17.6-3.4l17.6,14.2l6.8,18.9l27.1,15.5l23,0.7l11.5-14.9l18.2-3.4l15.6-23l21-1.4l25.7,22.3l23,5.4c8.8,4.4,2.7,1.3,3.4,2
			l9.5,14.9l44.6,16.2l28.4,0.7L980.1,408z"/>
		<path fill-rule="evenodd" clip-rule="evenodd" fill="#4B93DB" d="M994.4,422.5c30.3,32.3,55.5,69.5,74,110.4H330.1
			c20.8-45.8,49.8-87,85.2-121.8l25.7-6.4l34.9,4.7l60.4-24.3l25-5.4l37.9-31l18.2-27.8l10.9,5.4l4.7,15.6l7.4,8.8l12.9-2.7h15.5
			l16.2,41.9l43.3,37.9l-13.5-23l-10.8-6.8l-10.1-29.8l28.4,7.1l23,0.7l5.7-7.5l13.9,1l8.8-2.7l-2,15.5l-12.2,11.5l17.6-13.5
			l1.3-12.2l0.7-2.7l9.5-8.8l16.9-1.4l2.7-13.5l16.9,13.5v14.2l31.1,30.5l25.7,2.7l21.7,12.8L892.8,402h31.8l14.2,14.2l0.7,2
			l16.9-5.4l14.2,4.7L994.4,422.5z"/>
	</g>
	<g>
		<g>
			<path fill-rule="evenodd" clip-rule="evenodd" fill="#ADE07B" d="M1000.5,429.1c47.6,53,81.6,118.5,96.1,191H630.9
				C630.9,493.8,814.9,430.2,1000.5,429.1L1000.5,429.1z"/>
			<path fill-rule="evenodd" clip-rule="evenodd" fill="#8FC451" d="M1016.6,448.2c39.2,49.3,67.1,107.9,79.9,172H662.2
				C691.5,524.6,841.9,467.3,1016.6,448.2L1016.6,448.2z"/>
		</g>
		<g>
			<path fill-rule="evenodd" clip-rule="evenodd" fill="#B4E080" d="M301.9,620.1c13.6-68.1,44.4-130.1,87.6-181.3
				c217.7-35.3,498.9,25.1,498.9,181.3H301.9z"/>
			<path fill-rule="evenodd" clip-rule="evenodd" fill="#79AA3F" d="M301.9,620.1c12.4-61.6,38.7-118.2,75.6-166.3
				c224.2-3.4,453.7,52,503.4,166.3H301.9z"/>
		</g>
	</g>
	<g>
		<rect x="544.3" y="396.6" fill-rule="evenodd" clip-rule="evenodd" fill="#4F3214" width="6.4" height="100.6"/>
		<rect x="564.2" y="396.6" fill-rule="evenodd" clip-rule="evenodd" fill="#4F3214" width="6.4" height="100.6"/>
		<rect x="632.6" y="396.6" fill-rule="evenodd" clip-rule="evenodd" fill="#4F3214" width="6.4" height="100.6"/>
		<rect x="475.9" y="396.6" fill-rule="evenodd" clip-rule="evenodd" fill="#4F3214" width="6.4" height="100.6"/>
		<polygon fill-rule="evenodd" clip-rule="evenodd" fill="#4F3214" points="604,348.6 512.2,348.6 556.6,396.6 648.4,396.6 		"/>
		<polygon fill-rule="evenodd" clip-rule="evenodd" fill="#996633" points="512.2,348.6 604,348.6 559.7,396.6 467.8,396.6 		"/>
		<rect x="475.9" y="396.6" fill-rule="evenodd" clip-rule="evenodd" fill="#996633" width="1.9" height="100.6"/>
		<rect x="544.3" y="396.6" fill-rule="evenodd" clip-rule="evenodd" fill="#996633" width="1.9" height="100.6"/>
		<rect x="568.6" y="396.6" fill-rule="evenodd" clip-rule="evenodd" fill="#996633" width="1.9" height="100.6"/>
		<rect x="637.1" y="396.6" fill-rule="evenodd" clip-rule="evenodd" fill="#996633" width="1.9" height="100.6"/>
		<rect x="463" y="396.6" fill-rule="evenodd" clip-rule="evenodd" fill="#754C23" width="190.2" height="6.6"/>
		<rect x="463" y="458.6" fill-rule="evenodd" clip-rule="evenodd" fill="#754C23" width="190.2" height="6.6"/>
		<rect x="463" y="396.6" fill-rule="evenodd" clip-rule="evenodd" fill="#996633" width="92.2" height="6.6"/>
		<rect x="463" y="458.6" fill-rule="evenodd" clip-rule="evenodd" fill="#996633" width="92.2" height="6.6"/>
		<path fill-rule="evenodd" clip-rule="evenodd" fill="#754C23" d="M506.4,376.1c-4.4,4.2-8.7,8.5-13.1,12.7
			c17.5,1,29.4-11.6,41.1-24.5c-3,4.3-5.9,8.6-9,12.9c34-2.2,58.8-13.1,78.5-28.6l-44.4,47.9h-91.8
			C478.4,395.7,491.5,388.3,506.4,376.1L506.4,376.1z"/>
		<rect x="482.3" y="403.2" fill-rule="evenodd" clip-rule="evenodd" fill="#996633" width="81.9" height="55.5"/>
		<path fill-rule="evenodd" clip-rule="evenodd" fill="#754C23" d="M564.2,403.2h-81.9v6.4h81.9V403.2z M564.2,452.2h-81.9v6.5h81.9
			V452.2z M564.2,442.4h-81.9v6.5h81.9V442.4z M564.2,432.6h-81.9v6.4h81.9V432.6z M564.2,422.8h-81.9v6.4h81.9V422.8z M564.2,413
			h-81.9v6.4h81.9V413z"/>
		<rect x="570.5" y="403.2" fill-rule="evenodd" clip-rule="evenodd" fill="#996633" width="62.1" height="55.5"/>
		<path fill-rule="evenodd" clip-rule="evenodd" fill="#754C23" d="M632.6,403.2h-62.1v6.4h62.1V403.2z M632.6,452.2h-62.1v6.5h62.1
			V452.2z M632.6,442.4h-62.1v6.5h62.1V442.4z M632.6,432.6h-62.1v6.4h62.1V432.6z M632.6,422.8h-62.1v6.4h62.1V422.8z M632.6,413
			h-62.1v6.4h62.1V413z"/>
		<rect x="570.5" y="403.2" fill-rule="evenodd" clip-rule="evenodd" fill="#36220D" width="39.8" height="55.5"/>
		<rect x="607.4" y="403.2" fill-rule="evenodd" clip-rule="evenodd" fill="#4F3214" width="2.9" height="55.5"/>
		<rect x="463" y="458.6" fill-rule="evenodd" clip-rule="evenodd" fill="#996633" width="190.2" height="1.3"/>
		<rect x="463" y="458.6" fill-rule="evenodd" clip-rule="evenodd" fill="#DB9753" width="92.2" height="1.3"/>
		<rect x="463" y="396.5" fill-rule="evenodd" clip-rule="evenodd" fill="#996633" width="190.2" height="1.3"/>
		<rect x="463" y="396.5" fill-rule="evenodd" clip-rule="evenodd" fill="#DB9753" width="92.2" height="1.3"/>
		<rect x="610.3" y="403.2" fill-rule="evenodd" clip-rule="evenodd" fill="#996633" width="1" height="55.5"/>
	</g>
	<g>
		<path fill-rule="evenodd" clip-rule="evenodd" fill="#034745" d="M315.4,484.2c13.7-4.5,25,15.5,27.6,33.1c6-24.9,7.9-40,5.7-50.9
			c9,9.6,10.4,27,10,51.1c6.2-22.2,19.3-26.5,34-26.6c-16.1,4.5-25.2,15.7-26.9,34.2h-30.4C333.1,503.3,324.5,487,315.4,484.2
			L315.4,484.2z"/>
		<path fill-rule="evenodd" clip-rule="evenodd" fill="#034745" d="M343.1,484.2c13.7-4.5,25.1,15.5,27.6,33.1
			c6-24.9,7.9-40,5.7-50.9c9.1,9.6,10.4,27,10,51.1c6.2-22.2,19.3-26.5,34-26.6c-16.1,4.5-25.3,15.7-26.9,34.2h-30.4
			C360.9,503.3,352.2,487,343.1,484.2L343.1,484.2z"/>
		<path fill-rule="evenodd" clip-rule="evenodd" fill="#034745" d="M381.4,497.5c9.2-3,16.9,10.4,18.6,22.3c4-16.8,5.3-27,3.9-34.3
			c6.1,6.5,7,18.2,6.8,34.4c4.1-15,13-17.9,22.9-17.9c-10.8,3-17,10.6-18.1,23h-20.5C393.3,510.4,387.5,499.4,381.4,497.5
			L381.4,497.5z"/>
		<path fill-rule="evenodd" clip-rule="evenodd" fill="#034745" d="M420.5,484.2c13.7-4.5,25.1,15.5,27.6,33.1
			c6-24.9,7.9-40,5.7-50.9c9.1,9.6,10.4,27,10,51.1c6.2-22.2,19.3-26.5,34-26.6c-16.1,4.5-25.3,15.7-26.9,34.2h-30.4
			C438.3,503.3,429.7,487,420.5,484.2L420.5,484.2z"/>
		<path fill-rule="evenodd" clip-rule="evenodd" fill="#034745" d="M460.8,497.5c9.2-3,16.9,10.4,18.6,22.3
			c4.1-16.8,5.3-27,3.9-34.3c6.1,6.5,7,18.2,6.7,34.4c4.2-15,13-17.9,22.9-17.9c-10.8,3-17,10.6-18.1,23h-20.5
			C472.8,510.4,467,499.4,460.8,497.5L460.8,497.5z"/>
		<path fill-rule="evenodd" clip-rule="evenodd" fill="#034745" d="M522.7,497.5c9.2-3,16.9,10.4,18.6,22.3c4-16.8,5.3-27,3.8-34.3
			c6.1,6.5,7,18.2,6.8,34.4c4.1-15,13-17.9,22.9-17.9c-10.8,3-17,10.6-18.1,23h-20.5C534.7,510.4,528.8,499.4,522.7,497.5
			L522.7,497.5z"/>
		<path fill-rule="evenodd" clip-rule="evenodd" fill="#034745" d="M522.8,484.2c13.7-4.5,25,15.5,27.5,33.1c6-24.9,7.9-40,5.8-50.9
			c9,9.6,10.4,27,10,51.1c6.1-22.2,19.3-26.5,34-26.6c-16.1,4.5-25.3,15.7-26.9,34.2h-30.5C540.5,503.3,531.9,487,522.8,484.2
			L522.8,484.2z"/>
		<path fill-rule="evenodd" clip-rule="evenodd" fill="#034745" d="M552.4,484.2c13.7-4.5,25,15.5,27.5,33.1c6-24.9,7.9-40,5.7-50.9
			c9.1,9.6,10.4,27,10,51.1c6.1-22.2,19.3-26.5,34-26.6c-16.1,4.5-25.3,15.7-26.9,34.2h-30.4C570.1,503.3,561.5,487,552.4,484.2
			L552.4,484.2z"/>
		<path fill-rule="evenodd" clip-rule="evenodd" fill="#034745" d="M596.6,497.5c9.2-3,16.9,10.4,18.6,22.3c4-16.8,5.3-27,3.9-34.3
			c6.1,6.5,7,18.2,6.7,34.4c4.1-15,13-17.9,22.9-17.9c-10.9,3-17,10.6-18.1,23H610C608.5,510.4,602.7,499.4,596.6,497.5L596.6,497.5
			z"/>
		<path fill-rule="evenodd" clip-rule="evenodd" fill="#034745" d="M667.1,497.5c9.2-3,16.9,10.4,18.6,22.3
			c4.1-16.8,5.3-27,3.9-34.3c6.1,6.5,7,18.2,6.7,34.4c4.2-15,13-17.9,22.9-17.9c-10.9,3-17,10.6-18.1,23h-20.5
			C679.1,510.4,673.3,499.4,667.1,497.5L667.1,497.5z"/>
		<path fill-rule="evenodd" clip-rule="evenodd" fill="#034745" d="M689.2,497.5c9.2-3,16.9,10.4,18.6,22.3c4-16.8,5.3-27,3.8-34.3
			c6.1,6.5,7,18.2,6.8,34.4c4.1-15,13-17.9,22.9-17.9c-10.8,3-17,10.6-18.1,23h-20.5C701.2,510.4,695.3,499.4,689.2,497.5
			L689.2,497.5z"/>
		<path fill-rule="evenodd" clip-rule="evenodd" fill="#034745" d="M696.8,484.2c13.7-4.5,25,15.5,27.5,33.1c6-24.9,7.9-40,5.8-50.9
			c9,9.6,10.4,27,10,51.1c6.1-22.2,19.3-26.5,34-26.6c-16.1,4.5-25.2,15.7-26.9,34.2h-30.5C714.6,503.3,706,487,696.8,484.2
			L696.8,484.2z"/>
		<path fill-rule="evenodd" clip-rule="evenodd" fill="#034745" d="M729.2,490.6c11.5-3.8,21.1,13.1,23.2,27.9
			c5-20.9,6.6-33.6,4.8-42.8c7.6,8.1,8.8,22.8,8.4,43c5.2-18.7,16.2-22.3,28.6-22.3c-13.5,3.8-21.2,13.2-22.6,28.7H746
			C744.1,506.8,736.9,493,729.2,490.6L729.2,490.6z"/>
		<path fill-rule="evenodd" clip-rule="evenodd" fill="#034745" d="M768.3,501.5c7.9-2.6,14.4,9,15.9,19.1
			c3.4-14.3,4.5-23.1,3.3-29.3c5.2,5.5,6,15.6,5.8,29.4c3.5-12.8,11.1-15.3,19.6-15.3c-9.2,2.6-14.5,9-15.5,19.7h-17.5
			C778.5,512.5,773.6,503.1,768.3,501.5L768.3,501.5z"/>
		<path fill-rule="evenodd" clip-rule="evenodd" fill="#034745" d="M791.2,490.6c11.5-3.8,21.1,13.1,23.2,27.9
			c5-20.9,6.7-33.6,4.8-42.8c7.6,8.1,8.8,22.8,8.4,43c5.2-18.7,16.2-22.3,28.6-22.3c-13.5,3.8-21.2,13.2-22.6,28.7H808
			C806.1,506.8,798.9,493,791.2,490.6L791.2,490.6z"/>
		<path fill-rule="evenodd" clip-rule="evenodd" fill="#034745" d="M796.3,484.2c13.7-4.5,25,15.5,27.6,33.1c6-24.9,7.9-40,5.7-50.9
			c9,9.6,10.4,27,10,51.1c6.2-22.2,19.3-26.5,34-26.6c-16.1,4.5-25.2,15.7-26.9,34.2h-30.4C814,503.3,805.4,487,796.3,484.2
			L796.3,484.2z"/>
		<path fill-rule="evenodd" clip-rule="evenodd" fill="#034745" d="M833.1,484.2c13.7-4.5,25,15.5,27.6,33.1c6-24.9,7.9-40,5.7-50.9
			c9.1,9.6,10.4,27,10,51.1c6.2-22.2,19.3-26.5,34-26.6c-16.1,4.5-25.2,15.7-26.9,34.2h-30.5C850.9,503.3,842.2,487,833.1,484.2
			L833.1,484.2z"/>
		<path fill-rule="evenodd" clip-rule="evenodd" fill="#034745" d="M862,490.6c11.5-3.8,21.1,13.1,23.2,27.9
			c5-20.9,6.6-33.6,4.8-42.8c7.6,8.1,8.8,22.8,8.4,43c5.1-18.7,16.2-22.3,28.6-22.3c-13.5,3.8-21.2,13.2-22.6,28.7h-25.6
			C877,506.8,869.7,493,862,490.6L862,490.6z"/>
		<path fill-rule="evenodd" clip-rule="evenodd" fill="#034745" d="M894.2,501.5c7.9-2.6,14.4,9,15.9,19.1
			c3.5-14.3,4.6-23.1,3.3-29.3c5.2,5.5,6,15.6,5.7,29.4c3.5-12.8,11.1-15.3,19.6-15.3c-9.3,2.6-14.6,9-15.5,19.7h-17.5
			C904.5,512.5,899.5,503.1,894.2,501.5L894.2,501.5z"/>
		<path fill-rule="evenodd" clip-rule="evenodd" fill="#034745" d="M922.2,484.2c13.7-4.5,25,15.5,27.5,33.1c6-24.9,7.9-40,5.7-50.9
			c9.1,9.6,10.4,27,10,51.1c6.2-22.2,19.3-26.5,34-26.6c-16.1,4.5-25.3,15.7-26.9,34.2h-30.4C939.9,503.3,931.3,487,922.2,484.2
			L922.2,484.2z"/>
		<path fill-rule="evenodd" clip-rule="evenodd" fill="#034745" d="M987.9,490.6c11.5-3.8,21.1,13.1,23.2,27.9
			c5-20.9,6.7-33.6,4.8-42.8c7.6,8.1,8.8,22.8,8.4,43c5.2-18.7,16.2-22.3,28.6-22.3c-13.5,3.8-21.2,13.2-22.6,28.7h-25.6
			C1002.9,506.8,995.6,493,987.9,490.6L987.9,490.6z"/>
		<path fill-rule="evenodd" clip-rule="evenodd" fill="#034745" d="M957.6,484.2c13.7-4.5,25,15.5,27.6,33.1c6-24.9,7.9-40,5.7-50.9
			c9,9.6,10.4,27,10,51.1c6.2-22.2,19.3-26.5,34-26.6c-16.1,4.5-25.2,15.7-26.9,34.2h-30.5C975.4,503.3,966.8,487,957.6,484.2
			L957.6,484.2z"/>
		<path fill-rule="evenodd" clip-rule="evenodd" fill="#034745" d="M1038.6,501.5c7.9-2.6,14.4,9,15.9,19.1
			c3.5-14.3,4.6-23.1,3.3-29.3c5.2,5.5,6,15.6,5.7,29.4c3.5-12.8,11.1-15.3,19.6-15.3c-9.3,2.6-14.6,9-15.5,19.7h-17.5
			C1048.8,512.5,1043.9,503.1,1038.6,501.5L1038.6,501.5z"/>
	</g>
</g>
<g>
	<g>
		<path fill-rule="evenodd" clip-rule="evenodd" fill="#034745" d="M698.4,226.2c23,0.2,32.4-19.5,47.8-17.9
			c17.6,1.8,24.5,23.1,41.9,26.3c22.5,4.5,35.6-13,50.4-8.5c16.9,5.1,19.7,27.3,36.2,33.8c21.2,8.7,37.4-6.1,51.1,1.1
			c15.6,8.3,14.2,30.6,29.1,40c19.2,12.6,37.9,1.1,49.9,10.8c13.8,11,8.1,32.7,21,44.8c16.5,16,37,8.3,47,20
			c11.4,13.5,1.8,33.7,12.1,48c13.2,18.8,34.7,15.1,42.3,28.6c8.7,15.4-4.6,33.4,2.8,49.4c9.4,20.9,31.3,21.4,36.2,36
			c5.6,16.8-10.8,31.9-6.5,49.1c5.3,22.3,26.6,26.9,28.7,42.2c2.3,17.5-16.7,29.3-15.7,47c0.9,22.9,21,31.5,20.2,46.9
			c-1,17.7-21.9,25.6-24.3,43.2c-3.4,22.7,14.7,34.9,10.9,49.8c-4.3,17.2-26.4,21-32,37.8c-7.7,21.6,7.8,37.1,1.3,51
			c-7.5,16-29.9,15.6-38.6,31c-11.6,19.8,0.7,37.9-8.4,50.4c-10.4,14.3-32.3,9.7-43.7,23.1c-15.2,17.2-6.5,37.3-17.8,47.9
			c-12.9,12.1-33.5,3.4-47.4,14.4c-18.1,14.1-13.4,35.4-26.5,43.6c-14.9,9.4-33.6-3-49.2,5.2c-20.5,10.4-19.9,32.2-34.3,37.8
			c-16.4,6.4-32.4-9.3-49.3-4.2c-22.1,6.3-25.7,27.9-40.8,30.7c-17.4,3.2-30.1-15.3-47.7-13.4c-22.9,2-30.5,22.5-45.9,22.4
			c-17.7-0.1-26.6-20.7-44.2-22.2c-22.9-2.3-34.2,16.3-49.3,13.3c-17.3-3.5-22.2-25.3-39.2-30.2c-22-6.6-36.6,9.6-50.9,3.7
			c-16.4-6.7-17-29.1-32.8-37.1c-20.3-10.7-37.8,2.5-50.7-6c-14.8-9.7-11.2-31.8-25.2-42.6c-17.9-14.3-37.6-4.7-48.6-15.4
			c-12.7-12.3-5-33.4-16.7-46.6c-14.9-17.5-36-11.8-44.8-24.4c-10.1-14.5,1.4-33.7-7.6-48.9c-11.3-20-33.1-18.3-39.4-32.4
			c-7.2-16.1,7.8-32.8,1.8-49.5c-7.3-21.8-29.1-24.3-32.6-39.3c-4-17.2,13.8-30.7,11.2-48.2c-3.1-22.7-23.9-29.3-24.5-44.8
			c-0.7-17.6,19.4-27.5,20.1-45.2c1.3-22.9-18-33.4-15.6-48.6c2.7-17.5,24.3-23.4,28.3-40.6c5.6-22.3-11.3-36.2-6.2-50.7
			c5.9-16.7,28.3-18.4,35.5-34.5c9.7-20.8-4.3-37.6,3.5-50.9c9-15.3,31.3-12.7,41.4-27.2c13.5-18.6,2.9-37.8,13.1-49.3
			c11.7-13.3,33.1-6.5,45.8-18.9c16.7-15.7,10-36.5,22.2-46c14-10.8,33.7-0.2,48.5-9.9c19.4-12.3,16.8-34,30.5-40.9
			c15.8-7.9,33.1,6.2,49.5-0.5c21.3-8.4,22.9-30.2,37.7-34.4c17-4.9,31.4,12.4,48.7,8.9c22.6-4.2,28.2-25.3,43.5-26.6
			C669.9,206.7,680.8,226.3,698.4,226.2L698.4,226.2z M699.3,251.2c247.9,0,448.9,201,448.9,448.9c0,248-201,449-448.9,449
			c-248,0-449-201-449-449C250.3,452.2,451.3,251.2,699.3,251.2L699.3,251.2z"/>
		<path fill-rule="evenodd" clip-rule="evenodd" fill="#034745" d="M699.3,263c241.4,0,437.1,195.7,437.1,437.1
			s-195.7,437.1-437.1,437.1c-241.4,0-437.1-195.7-437.1-437.1S457.8,263,699.3,263L699.3,263z M699.3,279.8
			c232.1,0,420.3,188.2,420.3,420.3s-188.2,420.3-420.3,420.3c-232.2,0-420.3-188.2-420.3-420.3S467.1,279.8,699.3,279.8
			L699.3,279.8z"/>
	</g>
	<g>
		<rect x="195.8" y="532.9" fill-rule="evenodd" clip-rule="evenodd" fill="#1A8459" width="1006.8" height="334.6"/>
		<path fill-rule="evenodd" clip-rule="evenodd" fill="#034745" d="M195.8,532.9h1006.8C1066,509.5,332.5,509.5,195.8,532.9
			L195.8,532.9z"/>
		<path fill-rule="evenodd" clip-rule="evenodd" fill="#034745" d="M195.8,867.4h1006.8C1066,890.8,332.5,890.8,195.8,867.4
			L195.8,867.4z"/>
	</g>
</g>
<g>
	<g>
		<g>
			<path fill="#FFFFFF" d="M322.6,734.9c-4.1-1.8-7.6-3.8-10.4-6.1c-2.8-2.3-5.1-4.6-6.8-6.9c-1.6-2.3-2.8-4.3-3.4-6l-39.2-94.7
				l28.7-39.3c1.4-2,3.3-3.9,5.5-5.8c2.2-1.9,4.7-3.6,7.5-5.1c2.7-1.5,5.6-2.7,8.5-3.6h-54.5c2.8,1,5.1,2.2,7.1,3.7
				c2,1.5,3.3,3.1,4,4.9c0.7,1.7,0.5,3.4-0.7,5.1l-41.5,57.5v-52.5c0-1.6,0.5-3.4,1.4-5.6c0.9-2.1,2.4-4.3,4.6-6.6
				c2.2-2.3,5-4.4,8.8-6.5h-64c3.7,2.1,6.6,4.2,8.8,6.5c2.1,2.3,3.7,4.5,4.6,6.6c0.9,2.2,1.4,4,1.3,5.6v130.1
				c0.1,1.6-0.4,3.4-1.3,5.6c-0.9,2.1-2.5,4.4-4.6,6.7c-2.2,2.3-5.1,4.4-8.8,6.5h64c-3.7-2.1-6.6-4.2-8.8-6.5
				c-2.1-2.3-3.6-4.5-4.6-6.7c-0.9-2.1-1.4-4-1.4-5.6v-44.1l10.5-15.5l24.5,59.4c0.9,2.1,1.6,4.2,2,6.3c0.4,2.1,0,4.2-1.2,6.3
				c-1.1,2.1-3.4,4.2-7,6.3H322.6z M354.9,662.8l15-42.5l14,42.5H354.9z M459.4,734.9c-3.8-2.2-6.9-4.5-9.4-7.1
				c-2.4-2.5-4.3-4.9-5.6-7.1c-1.3-2.2-2.2-3.9-2.6-5l-55.2-148.4h-19.3l-58.1,151.4c-1.1,3.1-3,5.9-5.7,8.6
				c-2.7,2.7-6.3,5.1-10.9,7.6h50.6c-3.3-2.5-5.8-5-7.4-7.8c-1.6-2.7-2-5.4-1.1-8.1l15-40.7h39.5l12.4,37.9c1.1,3.2,0.8,6.4-0.7,9.5
				c-1.6,3.1-5.1,6.2-10.4,9.2H459.4z M536.8,567.4c5.8,3.1,10,6.2,12.7,9.3c2.7,3.1,4,6.2,3.9,9.5v81.8l-49.6-100.5h-51.6
				c5.8,3.1,10.1,6.2,12.7,9.3c2.7,3.1,4,6.2,3.9,9.5v130.1c0.1,3.2-1.3,6.3-3.9,9.5c-2.7,3.1-6.9,6.2-12.7,9.3h65.3
				c-6-3.1-10.3-6.2-13-9.3c-2.7-3.1-4.1-6.3-4-9.6v-91.2l53.9,110.2h34l-10.1-22.2V586.4c0-3.4,1.3-6.5,4-9.7c2.7-3.1,7-6.2,13-9.3
				H536.8z M719.7,738.6v-68.4c-4.1,10.7-8.1,19.8-12.1,27.5c-4,7.7-8.3,13.6-13,17.7c-4.7,4.2-10.1,6.2-16.4,6.3
				c-4.3,0-8.2-1.4-11.5-4.1c-3.4-2.8-6.3-6.5-8.8-11.2c-2.5-4.7-4.5-10.1-6.1-16.1c-1.6-6-2.9-12.4-3.7-19
				c-0.8-6.7-1.2-13.3-1.2-19.9s0.4-13.3,1.2-19.9c0.8-6.6,2-13,3.7-19c1.6-6,3.6-11.3,6.1-16c2.5-4.8,5.5-8.4,8.8-11.1
				c3.4-2.8,7.2-4.1,11.5-4.2c6.3,0,11.7,2.1,16.4,6.2c4.7,4.1,9,10,13,17.6c4,7.6,8,16.8,12.1,27.4v-68.6c-3.2,2.3-6.1,3.7-8.6,4.5
				c-2.5,0.7-4.8,1-7.1,0.7c-2.2-0.2-4.6-0.7-7.1-1.5c-2.4-0.7-5.3-1.4-8.5-2c-3.2-0.7-7.1-1-11.5-1.1c-8.4,0.1-16.1,1.5-22.9,4.2
				c-6.8,2.8-12.8,6.5-18.1,11.3c-5.3,4.7-9.8,10.1-13.6,16.1c-3.8,6-6.9,12.2-9.4,18.7c-2.5,6.5-4.2,12.9-5.4,19.1
				c-1.2,6.3-1.8,12.1-1.8,17.5s0.6,11.1,1.8,17.4c1.2,6.3,3,12.6,5.4,19.1c2.5,6.5,5.6,12.7,9.4,18.7c3.8,5.9,8.4,11.3,13.6,16
				c5.3,4.8,11.3,8.5,18.1,11.2c6.8,2.8,14.4,4.2,22.9,4.3c4.4-0.1,8.3-0.4,11.5-1s6.1-1.4,8.5-2.1c2.5-0.7,4.9-1.2,7.1-1.4
				c2.2-0.3,4.6,0,7.1,0.7C713.5,734.8,716.4,736.3,719.7,738.6L719.7,738.6z M801.9,734.9c-3.7-2.1-6.6-4.2-8.7-6.5
				c-2.1-2.3-3.6-4.5-4.6-6.7c-0.9-2.1-1.3-4-1.3-5.6V586.1c0-1.6,0.4-3.4,1.3-5.6c0.9-2.1,2.5-4.3,4.6-6.6c2.2-2.3,5.1-4.4,8.7-6.5
				h-64c3.7,2.1,6.6,4.2,8.8,6.5c2.1,2.3,3.7,4.5,4.6,6.6c0.9,2.2,1.4,4,1.4,5.6v130.1c0,1.6-0.5,3.4-1.4,5.6
				c-0.9,2.1-2.5,4.4-4.6,6.7c-2.2,2.3-5,4.4-8.8,6.5H801.9z M920.1,689.2c-2.2,6.3-5.4,11.4-9.5,15.3c-4.1,3.9-8.8,6.8-14.1,8.8
				c-5.3,2-10.7,3.4-16.3,4.1c-5.6,0.7-10.9,1-16,0.9V586.1c0-1.6,0.5-3.4,1.4-5.6c0.9-2.1,2.5-4.3,4.6-6.6c2.2-2.3,5-4.4,8.8-6.5
				h-64c3.7,2.1,6.6,4.2,8.8,6.5c2.1,2.3,3.7,4.5,4.5,6.6c0.9,2.2,1.4,4,1.4,5.6v130.1c0.1,1.6-0.4,3.4-1.4,5.6
				c-0.8,2.1-2.5,4.4-4.5,6.7c-2.2,2.3-5.1,4.4-8.8,6.5h105.1V689.2z M986.4,662.8l15-42.5l14,42.5H986.4z M1090.9,734.9
				c-3.8-2.2-6.9-4.5-9.3-7.1c-2.4-2.5-4.4-4.9-5.7-7.1c-1.3-2.2-2.2-3.9-2.6-5l-55.2-148.4h-19.3l-58.1,151.4
				c-1.2,3.1-3,5.9-5.8,8.6c-2.7,2.7-6.3,5.1-10.9,7.6h50.6c-3.3-2.5-5.8-5-7.4-7.8c-1.6-2.7-2-5.4-1.1-8.1l15-40.7h39.5l12.4,37.9
				c1.1,3.2,0.8,6.4-0.8,9.5c-1.6,3.1-5,6.2-10.3,9.2H1090.9z M1168.3,567.4c5.8,3.1,10.1,6.2,12.7,9.3c2.7,3.1,4,6.2,3.9,9.5v81.8
				l-49.6-100.5h-51.6c5.8,3.1,10.1,6.2,12.7,9.3c2.7,3.1,4,6.2,3.9,9.5v130.1c0,3.2-1.3,6.3-3.9,9.5c-2.7,3.1-6.9,6.2-12.7,9.3
				h65.3c-6-3.1-10.4-6.2-13-9.3c-2.7-3.1-4-6.3-4-9.6v-91.2l53.9,110.2h33.9l-10.1-22.2V586.4c-0.1-3.4,1.3-6.5,4-9.7
				c2.7-3.1,7-6.2,13-9.3H1168.3z"/>
			<g>
				<path fill-rule="evenodd" clip-rule="evenodd" fill="#B4E080" d="M1178.4,568.5c1.1,0.9,2.1,1.9,2.9,2.9c3,3.4,4.9,7.4,4.9,12
					V644h17.2v-60.3c0-4.7,1.9-8.7,4.9-12.2c0.9-1,1.9-2,3-2.9H1178.4z M1186.2,650.7v8.1h17.2v-8.1H1186.2z M1186.2,665.6v8.1h17.2
					v-8.1H1186.2z M1186.2,680.5v1.1l-0.6-1.1h-23.3l4,8.1h37.1v-8.1H1186.2z M1182.3,673.7l-4-8.1h-23.2l4,8.1H1182.3z M1175,658.8
					l-4-8.1h-23.2l4,8.1H1175z M1167.6,644l-37.3-75.4h-36.5c1.1,0.9,2.1,1.9,2.9,2.9c2.9,3.4,4.9,7.4,4.9,12V644h24v-38.5
					l18.8,38.5H1167.6z M1101.7,650.7v8.1h24v-8.1H1101.7z M1101.7,665.6v8.1h24v-8.1H1101.7z M1101.7,680.5v8.1h24v-8.1H1101.7z
					 M1101.7,695.4v8.1h24v-8.1H1101.7z M1101.7,710.3v3.3c0,1.7-0.3,3.3-0.8,4.9h25.6c-0.5-1.6-0.8-3.3-0.8-5.1v-3H1101.7z
					 M1097.1,725.1l-0.3,0.3c-0.9,1-1.9,2-2.9,2.9h39.7c-1.1-0.9-2.1-1.9-3-3l-0.2-0.3H1097.1z M1169.6,695.4l4,8.1h29.8v-8.1
					H1169.6z M1176.9,710.3l4,8.1h25.9l-3.4-7.5v-0.6H1176.9z M1184.2,725.1l1.6,3.3h25.6l-1.5-3.3H1184.2z"/>
				<path fill-rule="evenodd" clip-rule="evenodd" fill="#B4E080" d="M1076.8,728.4c-0.2-0.2-0.4-0.4-0.6-0.6
					c-0.8-0.9-1.6-1.8-2.4-2.7H1033c-0.6,1.2-1.4,2.2-2.3,3.3H1076.8z M1069.1,718.4c-0.7-1.3-1.5-2.7-2-4l-1.5-4.1h-32.1l0.7,2.1
					c0.7,2,0.9,4.1,0.8,6.1H1069.1z M1063.1,703.5l-3-8.1h-31.4l2.7,8.1H1063.1z M1057.6,688.6l-3-8.1h-30.7l2.7,8.1H1057.6z
					 M1052,673.7l-3-8.1h-87.4l-3.1,8.1h16.7l0.7-2h45l0.6,2H1052z M1046.5,658.8l-3-8.1h-29.6l2.7,8.1H1046.5z M1040.9,644
					l-28.1-75.4h-14L970,644h15.5l13.5-38.2l12.6,38.2H1040.9z M967.3,650.7l-3.1,8.1h16l2.9-8.1H967.3z M955.9,680.5l-3.1,8.1h16.9
					l3-8.1H955.9z M950.2,695.4l-3.1,8.1h17.1l3-8.1H950.2z M944.5,710.3l-2.7,7.2c-0.1,0.3-0.2,0.6-0.4,0.9h18
					c0.1-1.2,0.3-2.3,0.7-3.4l1.8-4.7H944.5z M937.2,725.1c-0.7,0.8-1.4,1.5-2.1,2.2c-0.3,0.4-0.7,0.7-1.1,1h28.8
					c-0.5-0.7-0.9-1.4-1.3-2.1c-0.2-0.4-0.5-0.8-0.7-1.2H937.2z"/>
				<path fill-rule="evenodd" clip-rule="evenodd" fill="#B4E080" d="M913.7,701.3c-0.6,0.8-1.3,1.5-2,2.2h2V701.3z M903.2,710.3
					c-2.5,1.5-5.1,2.8-7.9,3.9c-5.4,2.1-11.1,3.5-16.8,4.2h35.2v-8.1H903.2z M857.9,718.4v-8.1h-27v3.3c0,1.6-0.3,3.3-0.8,4.9H857.9
					z M857.9,703.5v-8.1h-27v8.1H857.9z M857.9,688.6v-8.1h-27v8.1H857.9z M857.9,673.7v-8.1h-27v8.1H857.9z M857.9,658.8v-8.1h-27
					v8.1H857.9z M857.9,644v-60.5c0-2.4,0.7-4.9,1.7-7.1c1.2-2.9,3.2-5.5,5.3-7.7c0,0,0,0,0.1,0h-41c0,0,0,0,0,0
					c2.1,2.3,4.1,4.9,5.3,7.8c0.9,2.2,1.6,4.6,1.6,7.1V644H857.9z M826.7,725.1c-0.8,1.1-1.7,2.2-2.7,3.2c0,0,0,0,0,0.1h89.8v-3.3
					H826.7z"/>
				<path fill-rule="evenodd" clip-rule="evenodd" fill="#B4E080" d="M787.9,728.4C787.9,728.4,787.8,728.4,787.9,728.4
					c-1-1-1.9-2.1-2.7-3.3h-35.6c-0.8,1.1-1.8,2.2-2.7,3.2c0,0,0,0-0.1,0.1H787.9z M781.7,718.4c-0.5-1.6-0.8-3.2-0.8-4.9v-3.3
					h-26.9v3.3c0,1.6-0.3,3.3-0.8,4.9H781.7z M780.9,703.5v-8.1h-26.9v8.1H780.9z M780.9,688.6v-8.1h-26.9v8.1H780.9z M780.9,673.7
					v-8.1h-26.9v8.1H780.9z M780.9,658.8v-8.1h-26.9v8.1H780.9z M780.9,644v-60.5c0-2.4,0.7-4.9,1.6-7.1c1.3-2.9,3.2-5.5,5.3-7.7
					c0,0,0,0,0,0h-41c0,0,0,0,0.1,0c2.1,2.3,4.1,4.9,5.3,7.8c0.9,2.2,1.7,4.6,1.7,7.1V644H780.9z"/>
				<path fill-rule="evenodd" clip-rule="evenodd" fill="#B4E080" d="M713.3,729.2v-4H648c1.6,0.8,3.3,1.6,5,2.3
					c6.8,2.8,14.1,4,21.4,4c3.6,0,7.2-0.2,10.8-1c2.8-0.6,5.5-1.2,8.2-2c2.5-0.7,5.1-1.3,7.7-1.6c2.9-0.3,5.8,0,8.6,0.8
					C710.9,728.1,712.1,728.6,713.3,729.2L713.3,729.2z M713.3,718.4v-8.1h-13.5c-1.6,1.9-3.3,3.7-5.2,5.4c-1.2,1-2.3,1.9-3.6,2.7
					H713.3z M713.3,703.5v-8.1h-4.1c-0.2,0.5-0.5,0.9-0.7,1.4c-1.2,2.2-2.4,4.5-3.8,6.7H713.3z M713.3,688.6v-1.8
					c-0.3,0.6-0.6,1.2-0.8,1.8H713.3z M662.4,718.4c-0.2-0.2-0.5-0.3-0.7-0.5c-2.7-2.2-5-4.8-6.9-7.6h-25.4c2.1,2.3,4.3,4.6,6.6,6.6
					c0.6,0.5,1.1,1,1.7,1.5H662.4z M650.9,703.5c-1.3-2.6-2.4-5.4-3.3-8.1h-28.3c1.2,2.1,2.4,4.2,3.7,6.3c0.4,0.6,0.8,1.2,1.2,1.8
					H650.9z M645.5,688.6L645.5,688.6c-0.7-2.7-1.4-5.4-1.9-8.1h-30.8c0.4,1.1,0.8,2.2,1.2,3.3c0.6,1.6,1.3,3.3,2,4.9H645.5z
					 M642.4,673.7c-0.2-1.6-0.5-3.2-0.7-4.8c-0.1-1.1-0.2-2.2-0.4-3.3h-32.6c0.5,2.8,1.2,5.5,1.9,8.1H642.4z M640.8,658.8
					c-0.1-2.7-0.2-5.4-0.3-8.1H607c0.1,2.7,0.3,5.4,0.6,8.1H640.8z M640.5,644c0.1-5.3,0.5-10.5,1.2-15.8c0.8-6.6,2-13.1,3.7-19.6
					c1.6-5.8,3.6-11.5,6.5-16.8c2.5-4.7,5.7-9,9.8-12.3c4.1-3.3,8.8-5,13.9-5c7.2,0,13.5,2.4,19,7.1c5.8,5.1,10.3,12,13.8,18.8
					c1.7,3.3,3.3,6.6,4.9,10v-42.6c-1.2,0.6-2.4,1.1-3.6,1.4c-2.8,0.8-5.7,1.2-8.6,0.9c-2.6-0.3-5.2-0.8-7.7-1.6
					c-2.7-0.8-5.5-1.4-8.2-2c-3.5-0.7-7.2-0.9-10.8-0.9c-7.3,0-14.6,1.2-21.4,4c-6.2,2.5-11.9,6-16.9,10.5s-9.4,9.6-13,15.3
					c-3.6,5.7-6.7,11.7-9.1,18c-2.3,6-4.1,12.2-5.3,18.5c-0.7,4-1.3,8.1-1.5,12.1H640.5z"/>
				<path fill-rule="evenodd" clip-rule="evenodd" fill="#B4E080" d="M547,568.5c1,0.9,2,1.9,2.9,2.9c2.9,3.4,4.8,7.4,4.8,12V644
					h17.1v-60.3c0-4.7,1.9-8.7,4.9-12.2c0.9-1,1.9-2,2.9-2.9H547z M554.8,650.7v8.1h17.1v-8.1H554.8z M554.8,665.6v8.1h17.1v-8.1
					H554.8z M554.8,680.5v1.1l-0.6-1.1h-23.3l4,8.1h37v-8.1H554.8z M550.9,673.7l-4-8.1h-23.2l4,8.1H550.9z M543.5,658.8l-4-8.1
					h-23.1l4,8.1H543.5z M536.2,644l-37.2-75.4h-36.5c1.1,0.9,2.1,1.9,3,2.9c2.9,3.4,4.8,7.4,4.8,12V644h24v-38.5L513,644H536.2z
					 M470.2,650.7v8.1h24v-8.1H470.2z M470.2,665.6v8.1h24v-8.1H470.2z M470.2,680.5v8.1h24v-8.1H470.2z M470.2,695.4v8.1h24v-8.1
					H470.2z M470.2,710.3v3.3c0,1.7-0.2,3.3-0.7,4.9H495c-0.5-1.6-0.8-3.3-0.8-5.1v-3H470.2z M465.6,725.1l-0.2,0.3
					c-0.9,1-1.9,2-3,2.9h39.7c-1.1-0.9-2.1-1.9-3-3l-0.2-0.3H465.6z M538.2,695.4l4,8.1h29.8v-8.1H538.2z M545.4,710.3l4,8.1h25.9
					l-3.4-7.5v-0.6H545.4z M552.7,725.1l1.6,3.3h25.6l-1.5-3.3H552.7z"/>
				<path fill-rule="evenodd" clip-rule="evenodd" fill="#B4E080" d="M445.3,728.4c-0.2-0.2-0.3-0.4-0.5-0.6
					c-0.8-0.9-1.6-1.8-2.4-2.7h-40.8c-0.6,1.2-1.4,2.2-2.3,3.3H445.3z M437.6,718.4c-0.7-1.3-1.5-2.7-2-4l-1.5-4.1h-32.1l0.7,2.1
					c0.7,2,0.9,4.1,0.8,6.1H437.6z M431.6,703.5l-3-8.1h-31.4l2.7,8.1H431.6z M426.1,688.6l-3-8.1h-30.7l2.6,8.1H426.1z
					 M420.6,673.7l-3-8.1h-87.4l-3.1,8.1h16.7l0.7-2h45l0.6,2H420.6z M415,658.8l-3-8.1h-29.6l2.7,8.1H415z M409.5,644l-28-75.4h-14
					l-29,75.4h15.6l13.5-38.2l12.6,38.2H409.5z M335.9,650.7l-3.1,8.1h16l2.9-8.1H335.9z M324.4,680.5l-3.1,8.1h17l3-8.1H324.4z
					 M318.7,695.4l-3.1,8.1h17.2l3-8.1H318.7z M313,710.3l-2.8,7.2c-0.1,0.3-0.2,0.6-0.4,0.9h18c0.1-1.2,0.3-2.3,0.7-3.4l1.7-4.7
					H313z M305.7,725.1c-0.7,0.8-1.3,1.5-2.1,2.2c-0.4,0.4-0.7,0.7-1,1h28.8c-0.5-0.7-0.9-1.4-1.4-2.1c-0.2-0.4-0.5-0.8-0.6-1.2
					H305.7z"/>
				<path fill-rule="evenodd" clip-rule="evenodd" fill="#B4E080" d="M306.4,728.4c-1.2-1-2.4-2.1-3.5-3.3h-37.7
					c-0.3,0.9-0.7,1.8-1.1,2.6c-0.1,0.2-0.2,0.5-0.4,0.7H306.4z M297.8,718.4c-0.7-1.2-1.3-2.4-1.9-3.6l-1.8-4.5h-31.2l0.6,1.5
					c0.9,2.1,1.7,4.3,2.1,6.6H297.8z M291.3,703.5l-3.4-8.1h-31.2l3.3,8.1H291.3z M285.2,688.6l-3.4-8.1h-31.2l3.4,8.1H285.2z
					 M279,673.7l-3.4-8.1h-31.2l3.4,8.1H279z M272.9,658.8l-3.4-8.1h-31.1l3.3,8.1H272.9z M266.7,644L256,618l30-41
					c1.8-2.4,3.9-4.5,6.1-6.4c0.8-0.7,1.7-1.4,2.6-2h-25.8c0.8,1,1.4,2.1,1.9,3.3c1.2,3,0.7,6.1-1.2,8.8L224,644H266.7z M221.2,644
					v-60.5c0-2.4,0.7-4.9,1.7-7.1c1.3-2.9,3.2-5.5,5.3-7.7c0,0,0,0,0.1,0h-41c0,0,0,0,0,0c2.1,2.3,4.1,4.9,5.3,7.8
					c0.9,2.2,1.7,4.6,1.7,7.1V644H221.2z M194.3,650.7v8.1h33.2l5.5-8.1H194.3z M194.3,665.6v8.1h26.9v-5.5l1.8-2.6H194.3z
					 M194.3,680.5v8.1h26.9v-8.1H194.3z M194.3,695.4v8.1h26.9v-8.1H194.3z M194.3,710.3v3.3c0,1.6-0.3,3.3-0.9,4.9h28.6
					c-0.5-1.6-0.8-3.2-0.8-4.9v-3.3H194.3z M190,725.1c-0.8,1.1-1.8,2.2-2.7,3.2c0,0,0,0,0,0.1h41c0,0,0,0-0.1-0.1
					c-0.9-1-1.8-2.1-2.7-3.2H190z"/>
			</g>
		</g>
		<path fill-rule="evenodd" clip-rule="evenodd" fill="#034745" d="M339.9,747.9c-3.6-1.5-6.8-3.3-9.4-5.3h24.3
			c1.5,1.8,3.4,3.6,5.7,5.3h-50.6c3.2-1.7,6-3.5,8.3-5.3H280c-1.3,1.8-3.4,3.5-6.3,5.3H339.9z M307.8,701l-27.6-66.8l28.7-39.3
			c1.4-2,3.3-3.9,5.5-5.8c2.2-1.9,4.7-3.6,7.5-5.1c2.7-1.5,5.6-2.7,8.5-3.6h-26.3c-0.7,0.6-1.5,1.1-2.2,1.7c-1.5,1.3-3,2.8-4.2,4.5
			l-26.2,35.8l34.5,83.3L307.8,701z M244.9,601.4v-2.4c0-1.6,0.4-3.4,1.4-5.6c0.9-2.1,2.4-4.3,4.6-6.6c2.2-2.3,5.1-4.4,8.8-6.5
			h-21.5c-0.8,1-1.6,2.1-2.1,3.3c-0.3,0.6-0.7,1.8-0.7,2.5v28.7L244.9,601.4z M203.1,742.6c-2,1.9-4.5,3.6-7.5,5.3h64
			c-3-1.7-5.5-3.4-7.5-5.3H203.1z M244.9,727.6v-34.3l-8.5-20.6l-1.2,1.7v41.8c0,0.7,0.5,1.9,0.7,2.5c0.7,1.6,2,3.2,3.2,4.4
			C240.8,724.9,242.8,726.4,244.9,727.6L244.9,727.6z M997.3,655.2h7.6l-3.7-11.1L997.3,655.2z M365.8,655.2h7.6l-3.7-11.1
			L365.8,655.2z M476.7,747.9c-2.9-1.7-5.4-3.4-7.5-5.3h-54c-1.8,1.8-4.3,3.5-7.3,5.3H476.7z M456.9,722.8l-53-142.5h-4.3L449,713.1
			c0.5,1.2,1.4,2.7,2,3.8c1.2,2.1,3,4,4.6,5.7c0.2,0.2,0.5,0.5,0.7,0.7C456.5,723.1,456.7,723,456.9,722.8L456.9,722.8z M352,731.9
			l15-40.7h18.4l-1.8-5.3h-28.6l-13.2,35.7c-0.2,0.4,0.3,1.3,0.5,1.6c1.3,2.2,3.4,4,5.4,5.5L352,731.9z M545.8,630.3l-24.6-49.9
			h-2.4l27,54.7V630.3z M477.9,742.6c-2.3,1.8-5.1,3.5-8.4,5.3h65.3c-3.4-1.8-6.3-3.5-8.6-5.3H477.9z M517.9,726.4v-48.8l-9.6-19.7
			V716c0,1.8,1,3.3,2.1,4.6C512.2,722.8,515.1,724.7,517.9,726.4L517.9,726.4z M569.2,742.6l2.6,5.3h33.9l-10.1-22.2V599.3
			c-0.1-3.4,1.2-6.5,4-9.7c2.7-3.1,7-6.2,13-9.3h-23.2c-0.5,0.5-0.9,0.9-1.3,1.4c-1.2,1.3-2.1,2.8-2.1,4.7v124.7l14.4,31.5H569.2z
			 M737,751.6v-9h-9.6v4.2c0.4,0.1,0.7,0.2,1.1,0.3C730.9,747.8,733.7,749.3,737,751.6L737,751.6z M737,726.6v-43.4
			c-3.3,8.5-6.5,16-9.6,22.6V732l6.9-3.8C735.1,727.7,736,727.2,737,726.6L737,726.6z M671.8,711.9c-1.1-2.7-2-5.6-2.8-8.7
			c-1.6-6-2.9-12.4-3.6-19c-0.8-6.7-1.2-13.3-1.2-19.9c0-6.7,0.4-13.3,1.2-19.9c0.8-6.7,2-13,3.6-19c1.6-6,3.6-11.3,6.2-16
			c2.5-4.8,5.4-8.4,8.8-11.1c2.2-1.8,4.6-3,7.2-3.6c-0.5-0.5-1-1-1.6-1.5c-3.3-2.9-7-4.3-11.4-4.3c-2.6,0-4.7,0.8-6.7,2.4
			c-2.9,2.3-5.1,5.5-6.9,8.8c-2.4,4.6-4.2,9.5-5.5,14.5c-1.6,5.8-2.7,11.8-3.4,17.9c-0.7,6.3-1.2,12.6-1.2,19c0,6.3,0.4,12.7,1.2,19
			c0.7,6.1,1.9,12.1,3.4,18c1.4,5,3.1,10,5.5,14.6c1.7,3.3,4,6.5,6.9,8.8C671.6,711.7,671.7,711.8,671.8,711.9L671.8,711.9z
			 M727.3,622.7c3.1,6.6,6.4,14.1,9.6,22.6v-68.6c-3.2,2.3-6.1,3.7-8.5,4.5c-0.4,0.1-0.7,0.2-1.1,0.3V622.7z M667.7,745
			c1.2,0.6,2.4,1.1,3.7,1.6c6.8,2.8,14.4,4.2,22.9,4.2c4.4,0,8.3-0.4,11.6-1c3.2-0.7,6.1-1.4,8.5-2.1c1.3-0.3,2.5-0.7,3.7-0.9
			l-2.8-2c-1-0.7-2.3-1.6-3.6-2.3h-3.4l1.5-0.9c-0.2-0.1-0.5-0.2-0.8-0.2c-1.3-0.4-2.7-0.6-4-0.5c-2,0.2-4,0.7-5.9,1.2
			c-3,0.9-6.1,1.6-9.1,2.2c-4.3,0.8-8.7,1.2-13.1,1.2C673.8,745.6,670.7,745.4,667.7,745L667.7,745z M819.2,747.9
			c-3-1.7-5.5-3.4-7.5-5.3h-49c-2,1.9-4.5,3.6-7.5,5.3H819.2z M804.5,727.6V599.1c0-1.6,0.4-3.4,1.4-5.6c0.9-2.1,2.5-4.3,4.6-6.6
			c2.2-2.3,5.1-4.4,8.8-6.5l0,0h-21.5c-0.8,1-1.6,2.1-2.1,3.3c-0.3,0.6-0.7,1.8-0.7,2.5v130.1c0,0.7,0.5,1.9,0.7,2.5
			c0.7,1.6,1.9,3.2,3.1,4.4C800.4,724.9,802.5,726.4,804.5,727.6L804.5,727.6z M937.4,702.1c-2.2,6.3-5.4,11.4-9.5,15.3l-0.1,0.1
			v5.9c0.6-0.5,1.2-1.1,1.8-1.6c1.7-1.7,3.1-3.6,3.9-5.8l3.9-10.2V702.1z M881.6,709.4V599.1c0-1.6,0.4-3.4,1.3-5.6
			c0.9-2.1,2.4-4.3,4.6-6.6c2.2-2.3,5.1-4.4,8.8-6.5h-21.5c-0.8,1-1.6,2.1-2.1,3.3c-0.3,0.6-0.7,1.8-0.7,2.5v124.3
			c2.4-0.1,4.9-0.4,7.3-0.7C880.1,709.6,880.8,709.5,881.6,709.4L881.6,709.4z M839.8,742.6c-2,1.9-4.5,3.6-7.5,5.3h105.1v-5.3
			H839.8z M1108.2,747.9c-2.9-1.7-5.4-3.4-7.6-5.3h-54c-1.9,1.8-4.3,3.5-7.4,5.3H1108.2z M1088.4,722.8l-53-142.5h-4.3l49.4,132.7
			c0.4,1.2,1.4,2.7,2,3.8c1.2,2.1,3,4,4.6,5.7c0.2,0.2,0.5,0.5,0.7,0.7C1088,723.1,1088.2,723,1088.4,722.8L1088.4,722.8z
			 M949.6,742.6c-2.3,1.8-5,3.6-8.2,5.3H992c-2.3-1.7-4.2-3.5-5.7-5.3H949.6z M983.5,731.9l15-40.7h18.4l-1.7-5.3h-28.6l-13.2,35.7
			c-0.1,0.4,0.3,1.3,0.5,1.6c1.3,2.2,3.4,4,5.4,5.5L983.5,731.9z M1177.3,630.3l-24.7-49.9h-2.3l27,54.7V630.3z M1109.4,742.6
			c-2.3,1.8-5.1,3.5-8.4,5.3h65.3c-3.4-1.8-6.3-3.5-8.6-5.3H1109.4z M1149.3,726.4v-48.8l-9.6-19.7V716c0,1.8,0.9,3.3,2.1,4.6
			C1143.7,722.8,1146.6,724.7,1149.3,726.4L1149.3,726.4z M1200.6,742.6l2.6,5.3h34l-10.1-22.2V599.3c0-3.4,1.3-6.5,4-9.7
			c2.7-3.1,7-6.2,13-9.3h-23.2c-0.5,0.5-0.9,0.9-1.3,1.4c-1.2,1.3-2.1,2.8-2.1,4.7v124.7l14.4,31.5H1200.6z"/>
	</g>
	<g>
		<path fill="#B4E080" d="M383.2,769.1h-39.9c1.4,0.8,2.5,1.6,3.3,2.5c0.8,0.8,1.4,1.7,1.7,2.5c0.4,0.8,0.5,1.5,0.5,2.1v49
			c0,0.6-0.2,1.3-0.5,2.1c-0.3,0.8-0.9,1.6-1.7,2.5c-0.8,0.9-1.9,1.7-3.3,2.5h24.1c-1.4-0.8-2.5-1.6-3.3-2.5
			c-0.8-0.8-1.4-1.7-1.7-2.5s-0.5-1.5-0.5-2.1v-28h5.2c2.1,0,3.9,0.3,5.4,0.9c1.5,0.6,2.6,1.3,3.5,2.2c0.8,0.9,1.4,1.9,1.7,3v-17.8
			c-0.3,1.1-0.9,2.1-1.7,3c-0.8,0.9-2,1.7-3.5,2.2c-1.4,0.6-3.2,0.9-5.4,0.9h-5.2v-16.2c1.9,0,3.8,0.1,5.7,0.2
			c1.9,0.2,3.7,0.6,5.6,1.2c1.8,0.6,3.6,1.4,5.3,2.6c1.7,1.2,3.3,2.7,4.8,4.6V769.1z M399.7,805.1l5.7-16l5.3,16H399.7z M439,832.2
			c-1.4-0.8-2.6-1.7-3.5-2.6c-0.9-1-1.6-1.9-2.1-2.7c-0.5-0.8-0.8-1.5-1-1.9l-20.8-55.9h-7.2l-21.9,57c-0.4,1.2-1.1,2.3-2.2,3.3
			c-1,1-2.4,1.9-4.1,2.8h19.1c-1.3-0.9-2.2-1.9-2.8-2.9c-0.6-1-0.8-2-0.4-3l5.7-15.3h14.9l4.7,14.3c0.4,1.2,0.3,2.4-0.3,3.6
			c-0.6,1.2-1.9,2.3-3.9,3.5H439z M482.9,789.9c0-1.9-0.3-3.7-0.9-5.5c-0.6-1.8-1.4-3.5-2.6-5.1c-1.2-1.8-2.7-3.2-4.5-4.4
			c-1.8-1.2-3.8-2.2-5.9-2.9c-2.1-0.8-4.3-1.3-6.5-1.8c-2.2-0.4-4.3-0.7-6.3-0.9c-2-0.1-3.8-0.2-5.3-0.2h-14.6
			c1.4,0.8,2.4,1.6,3.2,2.5c0.8,0.8,1.4,1.7,1.7,2.5c0.4,0.8,0.5,1.5,0.5,2.1v49c0,0.6-0.2,1.3-0.5,2.1c-0.3,0.8-0.9,1.6-1.7,2.5
			c-0.8,0.9-1.9,1.7-3.2,2.5h24c-1.4-0.8-2.5-1.6-3.3-2.5c-0.8-0.8-1.4-1.7-1.7-2.5c-0.3-0.8-0.5-1.5-0.5-2.1v-11.9
			c0.2,0,0.4,0,0.5,0c0.1,0,0.3,0,0.4,0c1.8,0.4,3.2,1.1,4.4,2.1c1.2,1,2.2,2.1,3,3.4c0.7,1.3,1.3,2.6,1.7,3.9
			c0.4,1.3,0.6,2.6,0.7,3.7c0.1,2,0.6,3.4,1.2,4.4c0.7,1,1.5,1.5,2.3,1.5h17.2c-1.5-0.7-2.7-1.5-3.6-2.3c-0.9-0.9-1.7-1.8-2.2-2.6
			c-0.6-0.9-0.9-1.6-1.2-2.2c-0.5-1.4-1.1-2.8-1.6-4.2c-0.6-1.3-1.2-2.6-1.9-3.6c-0.7-1.1-1.5-2-2.3-2.7c-1-0.9-2.2-1.7-3.4-2.4
			c-1.3-0.7-2.6-1.3-4-1.7c3.4-1.3,6.4-2.9,9-4.8c2.6-1.9,4.5-4.2,5.9-6.8C482.2,796.2,482.9,793.2,482.9,789.9L482.9,789.9z
			 M467.9,792.1c0,1.3-0.2,2.7-0.5,4.2c-0.4,1.5-0.9,2.9-1.6,4.3c-0.7,1.4-1.6,2.6-2.7,3.8c-1.1,1.1-2.3,2-3.7,2.7
			c-1.4,0.7-2.9,1-4.7,1v-33h0.5c1.7,0,3.3,0.5,4.8,1.3c1.5,0.9,2.8,2.1,4,3.7c1.2,1.5,2.1,3.4,2.8,5.4
			C467.5,787.5,467.9,789.7,467.9,792.1L467.9,792.1z M534.4,769.1l-13.2,27.5l-12.4-27.5h-19.9c1.3,0.8,2.3,1.5,3.1,2.4
			c0.8,0.8,1.4,1.6,1.8,2.4c0.4,0.8,0.6,1.5,0.6,2.1v49.2c0,0.6-0.2,1.3-0.5,2.1c-0.3,0.8-0.9,1.6-1.7,2.5c-0.8,0.9-1.9,1.7-3.3,2.5
			h20.1c-1.4-0.8-2.5-1.6-3.3-2.5c-0.8-0.8-1.4-1.7-1.7-2.5s-0.5-1.5-0.5-2.1v-37.5l16.1,35.6l18.1-35.7v37.7c0,0.6-0.2,1.3-0.5,2.1
			c-0.3,0.8-0.9,1.6-1.7,2.5c-0.8,0.9-1.9,1.7-3.3,2.5h24.5c-1.4-0.8-2.5-1.6-3.3-2.5c-0.8-0.8-1.4-1.7-1.7-2.5
			c-0.3-0.8-0.5-1.5-0.5-2.1v-49c0-1.2,0.4-2.5,1.3-3.6c0.9-1.2,2.3-2.3,4.3-3.5H534.4z M601.3,813.4c-1.3,3-3,5.4-5.1,7.4
			c-2.1,1.9-4.5,3.3-7.2,4.1c-2.8,0.8-5.7,1.2-9,0.9v-28.6h5.1c2.1,0,3.9,0.3,5.4,0.9c1.4,0.6,2.6,1.3,3.4,2.2
			c0.9,0.9,1.4,1.9,1.8,3v-17.8c-0.3,1.1-0.9,2.1-1.8,3c-0.8,0.9-2,1.7-3.4,2.2c-1.5,0.6-3.3,0.9-5.4,0.9h-5.1v-16.2
			c1.9,0,3.8,0.1,5.6,0.2c1.9,0.2,3.8,0.6,5.6,1.2c1.9,0.6,3.6,1.4,5.3,2.6c1.7,1.2,3.3,2.7,4.8,4.6v-14.8h-40
			c1.4,0.8,2.5,1.6,3.3,2.5c0.8,0.8,1.4,1.7,1.7,2.5c0.4,0.8,0.5,1.5,0.5,2.1v49c0,0.6-0.2,1.3-0.5,2.1c-0.3,0.8-0.9,1.6-1.7,2.5
			c-0.8,0.9-1.9,1.7-3.3,2.5h40V813.4z M654.3,789.9c0-1.9-0.3-3.7-0.9-5.5c-0.6-1.8-1.5-3.5-2.6-5.1c-1.2-1.8-2.7-3.2-4.5-4.4
			c-1.8-1.2-3.8-2.2-5.9-2.9c-2.1-0.8-4.3-1.3-6.5-1.8s-4.3-0.7-6.3-0.9c-2-0.1-3.8-0.2-5.3-0.2h-14.6c1.3,0.8,2.4,1.6,3.2,2.5
			c0.8,0.8,1.3,1.7,1.7,2.5c0.4,0.8,0.5,1.5,0.5,2.1v49c0,0.6-0.1,1.3-0.5,2.1c-0.3,0.8-0.9,1.6-1.7,2.5c-0.8,0.9-1.9,1.7-3.2,2.5
			h24c-1.4-0.8-2.5-1.6-3.3-2.5c-0.8-0.8-1.4-1.7-1.8-2.5c-0.4-0.8-0.5-1.5-0.5-2.1v-11.9c0.2,0,0.4,0,0.5,0c0.1,0,0.3,0,0.4,0
			c1.7,0.4,3.2,1.1,4.4,2.1c1.2,1,2.2,2.1,2.9,3.4c0.8,1.3,1.4,2.6,1.7,3.9c0.4,1.3,0.6,2.6,0.7,3.7c0.1,2,0.6,3.4,1.2,4.4
			c0.7,1,1.5,1.5,2.3,1.5h17.2c-1.5-0.7-2.7-1.5-3.6-2.3c-0.9-0.9-1.7-1.8-2.2-2.6c-0.6-0.9-0.9-1.6-1.2-2.2
			c-0.5-1.4-1.1-2.8-1.6-4.2c-0.6-1.3-1.2-2.6-1.9-3.6c-0.7-1.1-1.5-2-2.3-2.7c-1-0.9-2.2-1.7-3.4-2.4c-1.2-0.7-2.6-1.3-4-1.7
			c3.4-1.3,6.4-2.9,9-4.8c2.6-1.9,4.5-4.2,5.9-6.8C653.6,796.2,654.3,793.2,654.3,789.9L654.3,789.9z M639.3,792.1
			c0,1.3-0.2,2.7-0.6,4.2c-0.4,1.5-0.9,2.9-1.6,4.3c-0.7,1.4-1.6,2.6-2.7,3.8c-1.1,1.1-2.3,2-3.7,2.7c-1.4,0.7-2.9,1-4.7,1v-33h0.5
			c1.7,0,3.3,0.5,4.8,1.3c1.5,0.9,2.8,2.1,4,3.7c1.2,1.5,2.1,3.4,2.8,5.4C638.9,787.5,639.3,789.7,639.3,792.1L639.3,792.1z
			 M704.5,816.5c0-2.4-0.4-4.6-1.2-6.6c-0.8-2.1-1.9-4-3.3-5.8c-1.4-1.8-2.9-3.6-4.5-5.2c-1.7-1.6-3.4-3.3-5.1-4.8
			c-1-0.9-2.2-1.9-3.4-2.9c-1.3-1.1-2.5-2.2-3.7-3.3c-1.2-1.2-2.3-2.3-3.3-3.5c-1-1.2-1.7-2.3-2.2-3.5c-0.4-0.8-0.6-1.7-0.7-2.5
			c-0.1-0.8,0-1.6,0.3-2.3c0.3-0.7,0.8-1.3,1.6-1.7c0.8-0.4,1.8-0.6,3.1-0.6c1.6,0,3.3,0.4,5,1.2c1.7,0.8,3.3,1.9,4.8,3.2
			c1.6,1.3,3,2.7,4.3,4.3c1.3,1.5,2.4,3,3.2,4.6c0.9,1.5,1.4,2.8,1.7,4v-23.2c-1.1,0.9-2.1,1.5-3,1.8c-0.9,0.4-1.8,0.5-2.6,0.5
			c-0.7,0-1.5-0.1-2.2-0.3c-0.8-0.2-1.6-0.4-2.5-0.7c-0.9-0.2-1.9-0.5-3-0.7c-1.1-0.2-2.4-0.3-3.9-0.3c-3,0-5.7,0.3-8,0.9
			c-2.3,0.7-4.2,1.5-5.8,2.6c-1.5,1-2.8,2.2-3.7,3.5c-0.9,1.3-1.6,2.6-1.9,3.9c-0.4,1.3-0.5,2.5-0.4,3.6c0.3,1.9,0.9,3.7,2,5.3
			c1,1.6,2.3,3.2,3.8,4.6c1.5,1.4,3.2,2.9,5,4.3c1.8,1.4,3.5,2.9,5.3,4.4c1.7,1.5,3.3,3.1,4.7,4.8c1.4,1.7,2.6,3.6,3.5,5.7
			c0.8,2.1,1.3,4.4,1.3,7c0,2.9-0.6,5-1.7,6.4c-1.2,1.4-3.1,2.1-5.6,2.1c-1.6,0-3.3-0.6-4.9-1.8c-1.6-1.2-3.1-2.7-4.5-4.7
			c-1.4-2-2.8-4.3-4-6.8c-1.2-2.6-2.2-5.3-3.1-8.1c-0.9-2.8-1.5-5.7-2-8.6v36.5c0.9-0.8,1.7-1.3,2.5-1.6c0.8-0.3,1.6-0.4,2.5-0.4
			c1.1,0,2.2,0.2,3.5,0.5c1.3,0.3,2.8,0.6,4.6,0.8c1.8,0.3,3.9,0.4,6.4,0.5c2.6,0,5.1-0.2,7.6-0.7c2.5-0.5,4.8-1.3,6.8-2.5
			c2-1.2,3.6-2.9,4.9-5.1C703.8,822.8,704.5,820,704.5,816.5L704.5,816.5z M776.1,769.1l-13.2,27.5l-12.4-27.5h-19.9
			c1.3,0.8,2.3,1.5,3.1,2.4c0.8,0.8,1.4,1.6,1.8,2.4c0.3,0.8,0.6,1.5,0.6,2.1v49.2c0,0.6-0.2,1.3-0.5,2.1c-0.3,0.8-0.9,1.6-1.7,2.5
			c-0.8,0.9-1.9,1.7-3.3,2.5h20c-1.4-0.8-2.5-1.6-3.3-2.5c-0.8-0.8-1.4-1.7-1.7-2.5c-0.4-0.8-0.5-1.5-0.5-2.1v-37.5l16.1,35.6
			l18.1-35.7v37.7c0,0.6-0.2,1.3-0.5,2.1c-0.3,0.8-0.9,1.6-1.7,2.5c-0.8,0.9-1.9,1.7-3.3,2.5h24.5c-1.4-0.8-2.5-1.6-3.3-2.5
			c-0.8-0.8-1.4-1.7-1.7-2.5s-0.5-1.5-0.5-2.1v-49c0-1.2,0.4-2.5,1.3-3.6c0.9-1.2,2.3-2.3,4.3-3.5H776.1z M818.8,805.1l5.7-16
			l5.3,16H818.8z M858.2,832.2c-1.4-0.8-2.6-1.7-3.5-2.6c-0.9-1-1.6-1.9-2.1-2.7c-0.5-0.8-0.8-1.5-1-1.9l-20.8-55.9h-7.2l-21.9,57
			c-0.4,1.2-1.1,2.3-2.2,3.3c-1,1-2.4,1.9-4.1,2.8h19.1c-1.3-0.9-2.2-1.9-2.8-2.9c-0.6-1-0.8-2-0.4-3l5.7-15.3h14.9l4.7,14.3
			c0.4,1.2,0.3,2.4-0.3,3.6c-0.6,1.2-1.9,2.3-3.9,3.5H858.2z M902.1,789.9c0-1.9-0.3-3.7-0.9-5.5c-0.6-1.8-1.4-3.5-2.6-5.1
			c-1.2-1.8-2.7-3.2-4.5-4.4c-1.8-1.2-3.8-2.2-5.9-2.9c-2.1-0.8-4.3-1.3-6.5-1.8c-2.2-0.4-4.3-0.7-6.3-0.9c-2-0.1-3.8-0.2-5.3-0.2
			h-14.6c1.4,0.8,2.4,1.6,3.2,2.5c0.8,0.8,1.4,1.7,1.7,2.5c0.3,0.8,0.5,1.5,0.5,2.1v49c0,0.6-0.2,1.3-0.5,2.1
			c-0.4,0.8-0.9,1.6-1.7,2.5c-0.8,0.9-1.9,1.7-3.2,2.5h24c-1.4-0.8-2.5-1.6-3.3-2.5c-0.8-0.8-1.4-1.7-1.7-2.5
			c-0.4-0.8-0.5-1.5-0.5-2.1v-11.9c0.2,0,0.4,0,0.5,0c0.2,0,0.3,0,0.4,0c1.7,0.4,3.1,1.1,4.4,2.1c1.2,1,2.2,2.1,3,3.4
			c0.7,1.3,1.3,2.6,1.7,3.9c0.4,1.3,0.6,2.6,0.7,3.7c0.1,2,0.6,3.4,1.2,4.4c0.7,1,1.5,1.5,2.3,1.5h17.2c-1.5-0.7-2.7-1.5-3.6-2.3
			c-0.9-0.9-1.7-1.8-2.2-2.6c-0.6-0.9-0.9-1.6-1.2-2.2c-0.5-1.4-1.1-2.8-1.6-4.2c-0.6-1.3-1.2-2.6-1.9-3.6c-0.7-1.1-1.5-2-2.3-2.7
			c-1-0.9-2.2-1.7-3.4-2.4c-1.2-0.7-2.6-1.3-4-1.7c3.4-1.3,6.4-2.9,9-4.8c2.5-1.9,4.5-4.2,5.9-6.8
			C901.3,796.2,902.1,793.2,902.1,789.9L902.1,789.9z M887.1,792.1c0,1.3-0.2,2.7-0.5,4.2c-0.4,1.5-0.9,2.9-1.6,4.3
			c-0.7,1.4-1.6,2.6-2.7,3.8c-1,1.1-2.3,2-3.7,2.7c-1.4,0.7-2.9,1-4.7,1v-33h0.5c1.7,0,3.3,0.5,4.8,1.3c1.5,0.9,2.8,2.1,4,3.7
			c1.2,1.5,2.1,3.4,2.8,5.4C886.6,787.5,887,789.7,887.1,792.1L887.1,792.1z M962.3,832.2c-1.6-0.6-2.9-1.4-3.9-2.3
			c-1.1-0.9-1.9-1.8-2.6-2.6c-0.6-0.8-1-1.6-1.3-2.2l-14.7-35.7l10.8-14.8c0.5-0.8,1.2-1.5,2.1-2.2c0.8-0.7,1.8-1.3,2.8-1.9
			c1-0.6,2.1-1,3.2-1.4h-20.5c1.1,0.3,1.9,0.8,2.7,1.4c0.7,0.6,1.3,1.2,1.5,1.8c0.2,0.7,0.2,1.3-0.2,1.9l-15.6,21.7v-19.8
			c0-0.6,0.2-1.3,0.5-2.1c0.4-0.8,0.9-1.6,1.7-2.5c0.8-0.9,1.9-1.7,3.3-2.5H908c1.4,0.8,2.5,1.6,3.3,2.5c0.8,0.8,1.4,1.7,1.7,2.5
			c0.3,0.8,0.6,1.5,0.5,2.1v49c0,0.6-0.2,1.3-0.5,2.1c-0.3,0.8-0.9,1.6-1.7,2.5c-0.8,0.9-1.9,1.7-3.3,2.5h24.1
			c-1.4-0.8-2.5-1.6-3.3-2.5c-0.8-0.8-1.4-1.7-1.7-2.5c-0.3-0.8-0.5-1.5-0.5-2.1v-16.6l4-5.8l9.2,22.3c0.3,0.8,0.6,1.6,0.7,2.4
			c0.1,0.8,0,1.6-0.5,2.4c-0.4,0.8-1.3,1.6-2.6,2.4H962.3z M1000.9,813.4c-1.3,3-3,5.4-5.1,7.4c-2.1,1.9-4.5,3.3-7.3,4.1
			c-2.7,0.8-5.7,1.2-9,0.9v-28.6h5.2c2.1,0,3.9,0.3,5.4,0.9c1.5,0.6,2.6,1.3,3.5,2.2c0.8,0.9,1.4,1.9,1.8,3v-17.8
			c-0.3,1.1-0.9,2.1-1.8,3c-0.8,0.9-2,1.7-3.5,2.2c-1.4,0.6-3.2,0.9-5.4,0.9h-5.2v-16.2c1.9,0,3.8,0.1,5.7,0.2
			c1.9,0.2,3.7,0.6,5.6,1.2c1.9,0.6,3.6,1.4,5.3,2.6c1.8,1.2,3.3,2.7,4.9,4.6v-14.8h-40c1.4,0.8,2.5,1.6,3.3,2.5
			c0.8,0.8,1.4,1.7,1.7,2.5c0.3,0.8,0.6,1.5,0.5,2.1v49c0,0.6-0.2,1.3-0.5,2.1c-0.3,0.8-0.9,1.6-1.7,2.5c-0.8,0.9-1.9,1.7-3.3,2.5
			h40V813.4z M1052.3,769.1h-44.8v14.8c1.5-2.3,3-4.1,4.6-5.3c1.6-1.2,3.3-2.1,5.1-2.6c1.9-0.5,3.9-0.7,6.1-0.7v49.8
			c0,0.6-0.1,1.3-0.5,2.1s-0.9,1.6-1.7,2.5c-0.8,0.9-1.9,1.7-3.3,2.5h24.1c-1.4-0.8-2.5-1.6-3.3-2.5c-0.8-0.8-1.4-1.7-1.8-2.5
			c-0.3-0.8-0.5-1.5-0.5-2.1v-49.8c2.2,0,4.3,0.2,6.1,0.7c1.9,0.5,3.6,1.4,5.1,2.6c1.6,1.2,3.1,3,4.6,5.3V769.1z"/>
		<path fill-rule="evenodd" clip-rule="evenodd" fill="#034745" d="M391.9,775.2h-4.8v10.3c1.7,1.2,3.3,2.7,4.8,4.5V775.2z M355,836
			c-0.8,0.8-1.8,1.5-3.1,2.2H376c-1.3-0.7-2.3-1.4-3.1-2.2H355z M370.5,829.5v-26.3h2.8c-0.1-0.1-0.2-0.2-0.3-0.3
			c-0.5-0.6-1.3-1-2-1.3c-1.2-0.5-2.7-0.6-4-0.6h-1.3v24.2c0,0.1,0.1,0.4,0.2,0.6c0.2,0.5,0.7,1,1,1.4c0.7,0.7,1.5,1.3,2.3,1.7
			L370.5,829.5z M381.4,804.3c1.3,0.5,2.3,1.2,3,2.1c0.4,0.4,0.7,0.9,1,1.3l0.7-1.9v-12l-0.6-0.8c-0.3,0.5-0.7,1-1.1,1.5
			c-0.8,0.8-1.8,1.5-3,2.1V804.3z M370.5,787.3v-5.8c1.4,0,2.8,0,4.2,0.1c-0.9-0.5-1.8-0.8-2.7-1.2c-1.6-0.5-3.2-0.8-4.8-1
			c-0.5,0-0.9-0.1-1.4-0.1v8.4h1.3C368.1,787.7,369.4,787.6,370.5,787.3L370.5,787.3z M824.2,801.2h0.2l-0.1-0.3L824.2,801.2z
			 M880.9,828.6c-0.1-0.7-0.2-1.4-0.2-2.1c-0.1-1-0.2-2-0.5-3c-0.3-1.1-0.7-2-1.3-3c-0.3-0.5-0.7-1-1.1-1.4v6c0,0.1,0.1,0.4,0.2,0.6
			c0.2,0.5,0.6,1,1,1.4C879.5,827.7,880.2,828.2,880.9,828.6L880.9,828.6z M405.1,801.2h0.2l-0.1-0.3L405.1,801.2z M461.8,828.6
			c-0.1-0.7-0.2-1.4-0.2-2.1c-0.1-1-0.2-2-0.5-3c-0.3-1.1-0.7-2-1.3-3c-0.3-0.5-0.7-1-1.1-1.4l0,6c0,0.1,0.1,0.4,0.2,0.6
			c0.2,0.5,0.6,1,1,1.4C460.4,827.7,461.1,828.2,461.8,828.6L461.8,828.6z M633.2,828.6c-0.1-0.7-0.2-1.4-0.3-2.1c0-1-0.2-2-0.5-3
			c-0.3-1.1-0.7-2-1.3-3c-0.3-0.5-0.7-1-1.1-1.4v6c0,0.1,0.1,0.4,0.2,0.6c0.2,0.5,0.6,1,1,1.4C631.8,827.7,632.5,828.2,633.2,828.6
			L633.2,828.6z M447.7,838.3c-1.2-0.7-2.2-1.4-3.1-2.2h-19.8c-0.7,0.7-1.7,1.5-3,2.2H447.7z M437.9,822.7l-17.7-47.5H418l18,48.5
			c0.2,0.4,0.5,0.9,0.7,1.3c0.2,0.4,0.6,0.8,0.9,1.2c0.1-0.1,0.1-0.2,0.2-0.3c0-0.2,0.2-0.5,0.2-0.6V822.7z M388.3,836
			c-0.9,0.8-2.1,1.5-3.4,2.2h19c-0.9-0.7-1.7-1.4-2.3-2.2H388.3z M400.9,831.6l5.4-14.7h4.2l-0.7-2.2h-9.5l-4.6,12.5
			c0,0,0,0.1,0,0.1c0.4,0.7,1.1,1.3,1.7,1.8L400.9,831.6z M490.5,790.1c-0.6-1.6-1.4-3.2-2.4-4.7c-0.8-1.2-1.7-2.2-2.7-3.1
			c0.1,0.3,0.2,0.6,0.3,0.9c0.7,2.2,1.1,4.4,1.1,6.7c0,3.8-0.8,7.4-2.6,10.7c-1.8,3.2-4.1,5.9-7,8.1c-0.9,0.7-1.8,1.3-2.8,1.9
			c0.5,0.3,0.9,0.7,1.3,1c1.1,0.9,2,2,2.8,3.2c1.8-0.9,3.4-2,4.9-3.1c2.6-1.9,4.5-4.2,6-6.8c0.5-0.8,0.8-1.7,1.1-2.6V790.1z
			 M448,836c-0.8,0.8-1.8,1.5-3,2.2h24c-1.3-0.7-2.3-1.4-3-2.2H448z M474.8,836c0.1,0.3,0.2,0.5,0.4,0.7c0.7,1,1.4,1.5,2.3,1.5h17.2
			c-1.4-0.6-2.6-1.4-3.5-2.2H474.8z M486.6,828.1c-0.2-0.4-0.4-0.8-0.5-1.2c-0.6-1.3-1.2-2.6-1.9-3.6c-0.7-1.1-1.4-2-2.3-2.7
			c-0.2-0.2-0.3-0.3-0.5-0.5c0.5,1.2,0.9,2.4,1.4,3.6c0.2,0.5,0.5,1,0.8,1.5c0.4,0.7,1,1.3,1.6,1.8
			C485.6,827.5,486.1,827.8,486.6,828.1L486.6,828.1z M463.4,796.3v-8.8c-0.1-0.3-0.1-0.5-0.2-0.8c-0.5-1.5-1.2-3-2.2-4.3
			c-0.7-0.9-1.4-1.7-2.3-2.3v23.1c0.6-0.4,1.2-0.8,1.7-1.4c0.8-0.9,1.5-1.9,2.1-2.9C462.8,798,463.2,797.2,463.4,796.3L463.4,796.3z
			 M522.3,785.7l-4.8-10.5h-1.7l5.6,12.4L522.3,785.7z M500.5,836c-0.8,0.8-1.8,1.5-3.1,2.2h20.1c-1.3-0.7-2.3-1.4-3.1-2.2H500.5z
			 M512,829.5V816l-4.8-10.6v19.7c0,0.1,0.1,0.4,0.2,0.6c0.2,0.5,0.6,1,1,1.4c0.7,0.7,1.5,1.3,2.3,1.7L512,829.5z M524.6,821.6
			l3.5,7.7l5.6-11.1v-14.6L524.6,821.6z M543.7,836c-0.8,0.8-1.8,1.5-3.1,2.2h24.5c-1.3-0.7-2.3-1.4-3-2.2H543.7z M559.5,828.8
			v-46.6c0-1.2,0.4-2.4,1.3-3.6c0.5-0.7,1.3-1.4,2.2-2.1v-0.4c0-0.2-0.1-0.5-0.2-0.6s-0.1-0.2-0.2-0.4h-7.6c-0.2,0.3-0.3,0.6-0.3,1
			v49c0,0.1,0.1,0.4,0.2,0.6c0.2,0.5,0.6,1,1,1.4c0.6,0.7,1.5,1.3,2.3,1.7l0.6,0.4L559.5,828.8L559.5,828.8z M609.3,820.8
			c-1.2,2.2-2.5,4.1-4.1,5.6v2.8l0.7-0.4c0.8-0.5,1.6-1,2.3-1.7c0.3-0.3,0.8-0.9,1-1.4c0.1-0.2,0.2-0.5,0.2-0.6V820.8z M588.6,821
			v-17.7h2.8c-0.1-0.1-0.2-0.2-0.3-0.3c-0.5-0.6-1.3-1-2-1.3c-1.2-0.5-2.7-0.6-4-0.6h-1.3v21c1.4-0.1,2.7-0.3,4.1-0.8
			C588.1,821.1,588.3,821.1,588.6,821L588.6,821z M599.5,804.3c0.5,0.2,1,0.5,1.4,0.7l3.4-7.5v-3.7l-0.6-0.8c-0.3,0.5-0.7,1-1.1,1.5
			c-0.8,0.8-1.8,1.5-3,2.1V804.3z M588.6,787.3v-5.8c1.4,0,2.8,0,4.2,0.1c-0.9-0.5-1.8-0.8-2.7-1.2c-1.6-0.5-3.2-0.8-4.8-1
			c-0.5,0-1-0.1-1.5-0.1v8.4h1.3C586.3,787.7,587.5,787.6,588.6,787.3L588.6,787.3z M605.2,785.4c1.4,1,2.8,2.2,4.1,3.7v-13
			c0-0.2-0.1-0.5-0.2-0.6c0-0.1-0.1-0.2-0.2-0.4h-3.7V785.4z M573.1,836c-0.8,0.8-1.8,1.5-3.1,2.2h40V836H573.1z M662.8,793.4
			c-0.1-1-0.4-2-0.7-2.9c-0.6-1.8-1.4-3.5-2.6-5.1c-0.8-1.2-1.7-2.2-2.7-3.1c0.1,0.3,0.2,0.6,0.3,0.9c0.7,2.2,1.1,4.4,1.1,6.7
			c0,3.8-0.8,7.4-2.7,10.7c-1.7,3.2-4.1,5.9-7,8.1c-0.9,0.7-1.8,1.3-2.8,1.9c0.5,0.3,0.9,0.7,1.3,1c1,0.9,2,2,2.8,3.2
			c1.8-0.9,3.5-2,5-3.1c2.1-1.6,3.9-3.5,5.3-5.6v-12.5L662.8,793.4z M619.4,836c-0.8,0.8-1.8,1.5-3,2.2h24c-1.3-0.7-2.3-1.4-3.1-2.2
			H619.4z M646.2,836c0.1,0.3,0.2,0.5,0.4,0.7c0.7,1,1.5,1.5,2.3,1.5h11.2V836H646.2z M664.4,838.3h1.7c-0.4-0.2-0.7-0.3-1.1-0.5
			L664.4,838.3z M658,828.1c-0.2-0.4-0.3-0.8-0.5-1.2c-0.6-1.3-1.2-2.6-1.9-3.6c-0.7-1.1-1.4-2-2.3-2.7c-0.2-0.2-0.4-0.3-0.5-0.5
			c0.5,1.2,0.9,2.4,1.4,3.6c0.2,0.5,0.5,1,0.8,1.5c0.4,0.7,1,1.3,1.6,1.8C657,827.5,657.4,827.8,658,828.1L658,828.1z M634.8,796.3
			v-8.8c-0.1-0.3-0.1-0.5-0.2-0.8c-0.5-1.5-1.2-3-2.2-4.3c-0.7-0.9-1.4-1.7-2.3-2.3v23.1c0.6-0.4,1.2-0.8,1.7-1.4
			c0.8-0.9,1.5-1.9,2.1-2.9C634.2,798,634.5,797.2,634.8,796.3L634.8,796.3z M713.1,822.6c0-2.4-0.5-4.6-1.3-6.6
			c-0.8-2.1-1.9-4-3.3-5.8c-0.7-0.9-1.4-1.8-2.2-2.7c0.1,0.3,0.3,0.7,0.4,1c1,2.6,1.5,5.3,1.5,8c0,3.5-0.6,7.2-2.3,10.3
			c-1.5,2.7-3.6,5-6.3,6.5c-2.5,1.5-5.2,2.4-8.1,3c-2.8,0.5-5.6,0.8-8.4,0.7c-2.3,0-4.7-0.1-6.9-0.5c-1.2-0.2-2.4-0.4-3.6-0.6h-0.2
			v3.6c0.8-0.8,1.7-1.3,2.5-1.6c0.8-0.3,1.6-0.4,2.5-0.4c1,0,2.2,0.2,3.5,0.5c1.3,0.3,2.8,0.6,4.6,0.8c1.8,0.3,3.9,0.4,6.4,0.5
			c2.6,0,5.1-0.2,7.6-0.7c2.5-0.5,4.8-1.3,6.8-2.5c2-1.2,3.6-2.9,4.9-5.1C712.5,828.9,713.1,826,713.1,822.6L713.1,822.6z
			 M685.8,785c0-0.2-0.1-0.4-0.1-0.6c-0.1-0.8,0-1.6,0.3-2.3c0.3-0.7,0.8-1.3,1.6-1.7c0.2-0.1,0.5-0.2,0.7-0.3
			c-0.9-0.7-1.9-1.3-2.8-1.7c-1.1-0.5-2.2-0.9-3.3-0.9c-0.3,0-0.9,0-1.3,0.2c0,0.1,0,0.2,0,0.2c0.1,0.5,0.2,0.9,0.3,1.4
			c0.4,0.9,1,1.8,1.6,2.5C683.7,783,684.7,784,685.8,785L685.8,785z M705,788.7c1.2,1.5,2.2,2.9,3.1,4.3c0.8,1.5,1.4,2.8,1.7,4
			v-23.2c-1.1,0.9-2.1,1.5-3,1.8c-0.6,0.2-1.2,0.4-1.8,0.5V788.7z M678.1,820.8c-0.1-0.3-0.3-0.6-0.4-0.9c-1.2-2.6-2.2-5.3-3.1-8.1
			c-0.9-2.8-1.5-5.7-2-8.5v9.1c1,2.1,2.1,4.2,3.5,6.1C676.7,819.2,677.3,820,678.1,820.8L678.1,820.8z M763.9,785.7l-4.8-10.5h-1.7
			l5.6,12.4L763.9,785.7z M742.1,836c-0.8,0.8-1.8,1.5-3.1,2.2h20.1c-1.3-0.7-2.3-1.4-3.1-2.2H742.1z M753.5,829.5V816l-4.8-10.6
			v19.7c0,0.1,0.1,0.4,0.2,0.6c0.2,0.5,0.6,1,1,1.4c0.6,0.7,1.5,1.3,2.3,1.7L753.5,829.5z M766.2,821.6l3.5,7.7l5.6-11.1v-14.6
			L766.2,821.6z M785.3,836c-0.8,0.8-1.8,1.5-3.1,2.2h24.5c-1.3-0.7-2.3-1.4-3.1-2.2H785.3z M801.1,816.7v-34.4
			c0-1.2,0.4-2.4,1.3-3.6c0.9-1.2,2.3-2.3,4.4-3.5h-10.2c-0.2,0.3-0.3,0.6-0.3,1v49c0,0.1,0.1,0.4,0.2,0.6c0.1,0.2,0.2,0.5,0.4,0.7
			c0.5-0.5,0.8-1.1,1.1-1.7L801.1,816.7z M866.8,838.3c-1.2-0.7-2.2-1.4-3.1-2.2h-19.8c-0.7,0.7-1.7,1.5-3,2.2H866.8z M857,822.7
			l-17.7-47.5h-2.3l18,48.5c0.2,0.4,0.5,0.9,0.7,1.3c0.2,0.4,0.6,0.8,0.9,1.2c0.1-0.1,0.1-0.2,0.2-0.3c0-0.2,0.2-0.5,0.2-0.6V822.7z
			 M807.4,836c-0.9,0.8-2.1,1.5-3.4,2.2h19c-0.9-0.7-1.7-1.4-2.3-2.2H807.4z M820,831.6l5.4-14.7h4.2l-0.7-2.2h-9.4l-4.6,12.5
			c0,0,0,0.1,0,0.1c0.4,0.7,1.1,1.3,1.7,1.8L820,831.6z M909.6,790.1c-0.6-1.6-1.4-3.2-2.4-4.7c-0.8-1.2-1.7-2.2-2.7-3.1
			c0.1,0.3,0.2,0.6,0.3,0.9c0.7,2.2,1.1,4.4,1.1,6.7c0,3.8-0.8,7.4-2.6,10.7c-1.8,3.2-4.1,5.9-7,8.1c-0.9,0.7-1.8,1.3-2.8,1.9
			c0.5,0.3,0.9,0.7,1.3,1c1.1,0.9,2,2,2.8,3.2c1.8-0.9,3.4-2,4.9-3.1c2.6-1.9,4.5-4.2,6-6.8c0.5-0.8,0.8-1.7,1.1-2.6V790.1z
			 M867.1,836c-0.8,0.8-1.8,1.5-3,2.2h24c-1.3-0.7-2.3-1.4-3-2.2H867.1z M893.9,836c0.1,0.3,0.2,0.5,0.4,0.7c0.7,1,1.4,1.5,2.3,1.5
			h17.2c-1.4-0.6-2.6-1.4-3.5-2.2H893.9z M905.7,828.1c-0.2-0.4-0.3-0.8-0.5-1.2c-0.6-1.3-1.2-2.6-1.9-3.6c-0.7-1.1-1.4-2-2.3-2.7
			c-0.2-0.2-0.3-0.3-0.5-0.5c0.5,1.2,0.9,2.4,1.4,3.6c0.2,0.5,0.5,1,0.8,1.5c0.4,0.7,1,1.3,1.6,1.8
			C904.7,827.5,905.2,827.8,905.7,828.1L905.7,828.1z M882.5,796.3v-8.8c-0.1-0.3-0.1-0.5-0.2-0.8c-0.5-1.5-1.2-3-2.2-4.3
			c-0.7-0.9-1.4-1.7-2.3-2.3v23.1c0.6-0.4,1.2-0.8,1.7-1.4c0.8-0.9,1.5-1.9,2.1-2.9C881.9,798,882.3,797.2,882.5,796.3L882.5,796.3z
			 M970.9,838.3c-1.5-0.6-2.8-1.4-3.8-2.2h-18.6c-0.5,0.7-1.3,1.5-2.5,2.2H970.9z M961.5,827.1l-13.1-31.6l10.8-14.8
			c0.6-0.7,1.2-1.5,2.1-2.2c0.4-0.4,0.9-0.7,1.3-1.1v-1.3c0-0.2-0.1-0.5-0.2-0.6c0-0.1-0.1-0.2-0.2-0.4h-6.9
			c-0.1,0.1-0.1,0.1-0.2,0.2c-0.5,0.5-1,0.9-1.5,1.5l-9.5,13.1l13.9,33.7c0.2,0.5,0.5,1,0.8,1.4c0.5,0.7,1.2,1.4,1.9,1.9
			c0.1,0.1,0.3,0.2,0.4,0.4C961.3,827.3,961.4,827.2,961.5,827.1L961.5,827.1z M936.7,775.2h-6c-0.1,0.1-0.2,0.3-0.2,0.4
			c-0.1,0.1-0.2,0.4-0.2,0.6v7.8L936.7,775.2z M919.7,836c-0.8,0.8-1.8,1.5-3.1,2.2h24.1c-1.3-0.7-2.3-1.4-3.1-2.2H919.7z
			 M935.2,829v-4.9l-4.8-11.6v12.6c0,0.1,0.1,0.4,0.2,0.6c0.2,0.5,0.6,1,1,1.4c0.7,0.7,1.5,1.3,2.3,1.7l0.8,0.5L935.2,829z
			 M1009.5,819.5c-1.3,2.8-2.8,5.1-4.8,7v8.6l4.8-2.6V819.5z M988.2,821v-17.7h2.8c-0.1-0.1-0.2-0.2-0.3-0.3c-0.5-0.6-1.3-1-2-1.3
			c-1.2-0.5-2.7-0.6-4-0.6h-1.3v21c1.4-0.1,2.7-0.3,4-0.8C987.7,821.1,987.9,821.1,988.2,821L988.2,821z M999.1,804.3
			c0.5,0.2,1,0.5,1.4,0.7l3.4-7.5v-0.8l-0.1,0.2v-3.3l-0.5-0.6c-0.3,0.5-0.7,1-1.1,1.5c-0.8,0.8-1.8,1.5-3,2.1V804.3z M988.2,787.3
			v-5.8c1.4,0,2.8,0,4.2,0.1c-0.9-0.5-1.8-0.8-2.7-1.2c-1.6-0.5-3.2-0.8-4.8-1c-0.5,0-1-0.1-1.5-0.1v8.4h1.3
			C985.8,787.7,987,787.6,988.2,787.3L988.2,787.3z M1008.8,789.1c0.2,0.3,0.5,0.6,0.7,0.9v-2.1L1008.8,789.1z M972.6,836
			c-0.8,0.8-1.8,1.5-3.1,2.2h40V836H972.6z M1060.9,775.2h-4.8v9.3l0.2,0.2c1.6,1.2,3.1,3,4.5,5.3V775.2z M1016.2,780.6v9.4
			c1.1-1.7,2.2-3.1,3.4-4.3v-6.2c-0.5,0.1-0.9,0.2-1.3,0.3C1017.5,780,1016.8,780.3,1016.2,780.6L1016.2,780.6z M1029.6,836
			c-0.8,0.8-1.8,1.5-3.1,2.2h24.1c-1.3-0.7-2.3-1.4-3.1-2.2H1029.6z M1045.1,829.5v-48.1l0,0c-1-0.8-2.2-1.3-3.5-1.6
			c-0.4-0.1-0.9-0.2-1.3-0.3v45.7c0,0.1,0.1,0.4,0.2,0.6c0.2,0.5,0.6,1,1,1.4c0.6,0.7,1.5,1.3,2.3,1.7L1045.1,829.5z"/>
	</g>
	<g>
		<g>
			<path fill-rule="evenodd" clip-rule="evenodd" fill="#B4E080" d="M257.9,782.4c10.1,0,18.3,8.2,18.3,18.3
				c0,10.1-8.2,18.3-18.3,18.3c-10.1,0-18.3-8.2-18.3-18.3C239.6,790.6,247.8,782.4,257.9,782.4L257.9,782.4z"/>
			<path fill-rule="evenodd" clip-rule="evenodd" fill="#034745" d="M279.8,797.5c2.6,3.2,4.2,7.2,4.2,11.6
				c0,10.1-8.2,18.3-18.3,18.3c-5,0-9.5-2-12.7-5.2c1.6,0.4,3.3,0.6,5,0.6c12.2,0,22.1-9.9,22.1-22.1
				C280,799.6,279.9,798.5,279.8,797.5L279.8,797.5z"/>
		</g>
		<g>
			<path fill-rule="evenodd" clip-rule="evenodd" fill="#B4E080" d="M1140.6,782.4c10.1,0,18.3,8.2,18.3,18.3
				c0,10.1-8.2,18.3-18.3,18.3c-10.1,0-18.3-8.2-18.3-18.3C1122.3,790.6,1130.5,782.4,1140.6,782.4L1140.6,782.4z"/>
			<path fill-rule="evenodd" clip-rule="evenodd" fill="#034745" d="M1162.5,797.5c2.6,3.2,4.2,7.2,4.2,11.6
				c0,10.1-8.2,18.3-18.2,18.3c-5,0-9.5-2-12.8-5.2c1.6,0.4,3.3,0.6,5,0.6c12.2,0,22.1-9.9,22.1-22.1
				C1162.7,799.6,1162.6,798.5,1162.5,797.5L1162.5,797.5z"/>
		</g>
	</g>
</g>
<g>
	<g>
		<path fill-rule="evenodd" clip-rule="evenodd" fill="#BFBF56" d="M760.1,1056.5c2.2,21.1,24.3,32.8,43.7,25.2
			C800.6,1061.2,779.5,1047.9,760.1,1056.5L760.1,1056.5z M969,935.1c21.1,2.2,37.1-17,33.8-37.5C982,896.4,964.6,914.3,969,935.1
			L969,935.1z M954.7,954.9c14.2,15.8,38.9,12.3,50.2-5.3C990.3,934.8,965.3,936.5,954.7,954.9L954.7,954.9z M951.8,952.5
			c-18.4-10.6-20.1-35.6-5.3-50.2C964.1,913.6,967.6,938.3,951.8,952.5L951.8,952.5z M927.3,980c12.5,17.2,37.5,16.2,50.5,0
			C964.8,963.8,939.8,962.8,927.3,980L927.3,980z M924.7,977.4c-17.2-12.5-16.2-37.4,0-50.5C940.9,939.9,941.8,964.9,924.7,977.4
			L924.7,977.4z M897.5,1002.2c10.6,18.4,35.5,20.1,50.2,5.3C936.4,989.9,911.7,986.4,897.5,1002.2L897.5,1002.2z M895.1,999.3
			c-15.8-14.2-12.3-38.9,5.3-50.2C915.2,963.8,913.5,988.7,895.1,999.3L895.1,999.3z M865.4,1021.1c8.6,19.4,33.2,23.7,49.4,10.5
			C905.4,1013,881.2,1006.9,865.4,1021.1L865.4,1021.1z M863.4,1018c-14.2-15.8-8.1-40,10.5-49.4
			C887.1,984.7,882.8,1009.3,863.4,1018L863.4,1018z M831.6,1036.6c6.6,20.2,30.6,27,48,15.6
			C872.2,1032.7,848.8,1024.1,831.6,1036.6L831.6,1036.6z M829.9,1033.2c-12.5-17.1-3.9-40.6,15.6-48
			C856.9,1002.6,850.1,1026.7,829.9,1033.2L829.9,1033.2z M796.4,1048.4c4.4,20.8,27.6,30.1,46.1,20.5
			C837.2,1048.8,814.7,1037.8,796.4,1048.4L796.4,1048.4z M795,1044.9c-10.6-18.4,0.3-40.8,20.5-46.1
			C825.1,1017.3,815.8,1040.5,795,1044.9L795,1044.9z M759.1,1052.9c-8.6-19.4,4.7-40.5,25.2-43.7
			C791.9,1028.6,780.2,1050.7,759.1,1052.9L759.1,1052.9z"/>
		<path fill-rule="evenodd" clip-rule="evenodd" fill="#FFFFCC" d="M766.6,1056.7c3.7,13,17.2,20.1,30.3,17.5
			C792.6,1061.6,779.7,1053.4,766.6,1056.7L766.6,1056.7z M974.1,925.8c5.1-0.4,10-2.3,14-5.8c5.9-5.1,9.2-12.5,9.4-20.2
			C984.3,901.4,973.7,912.3,974.1,925.8L974.1,925.8z M962.3,950.5c10.6,8.3,25.7,6.1,34.8-3.7C986.2,939.2,970.9,940.2,962.3,950.5
			L962.3,950.5z M951,941.3c8.3-10.6,6.1-25.7-3.7-34.8C939.7,917.5,940.8,932.7,951,941.3L951,941.3z M934.9,976.4
			c9.7,9.3,24.9,8.8,35,0C959.8,967.6,944.6,967.1,934.9,976.4L934.9,976.4z M924.7,931.2c-8.8,10-9.3,25.3,0,35
			C934,956.5,933.4,941.3,924.7,931.2L924.7,931.2z M939.8,1003c-9.1-9.7-24.2-11.9-34.8-3.6C913.7,1009.6,928.9,1010.6,939.8,1003
			L939.8,1003z M899.5,953.3c-9.7,9.1-11.9,24.1-3.6,34.8C906.1,979.4,907.1,964.2,899.5,953.3L899.5,953.3z M872.9,1019.1
			c7.5,11.2,22.5,13.7,34.2,7.3C899,1015.7,884.3,1012,872.9,1019.1L872.9,1019.1z M872.2,972.7c-10.6,8-14.4,22.8-7.2,34.2
			C876.1,999.4,878.7,984.4,872.2,972.7L872.2,972.7z M838.8,1035.3c6.3,11.9,21,16,33.2,10.8
			C865.2,1034.7,850.9,1029.4,838.8,1035.3L838.8,1035.3z M843,989.1c-11.4,6.9-16.7,21.2-10.8,33.3
			C844.1,1016.1,848.3,1001.4,843,989.1L843,989.1z M803.3,1047.9c5.1,12.5,19.2,18.1,31.9,14.2
			C829.6,1050.1,815.9,1043.3,803.3,1047.9L803.3,1047.9z M812.3,1002.4c-12,5.6-18.8,19.3-14.2,31.9
			C810.6,1029.3,816.2,1015.2,812.3,1002.4L812.3,1002.4z M762.9,1042.7c12.9-3.7,20.1-17.2,17.5-30.3
			C767.8,1016.8,759.6,1029.6,762.9,1042.7L762.9,1042.7z"/>
	</g>
	<g>
		<path fill-rule="evenodd" clip-rule="evenodd" fill="#BFBF56" d="M638.4,1056.5c-2.2,21.1-24.3,32.8-43.7,25.2
			C597.9,1061.2,619,1047.9,638.4,1056.5L638.4,1056.5z M429.4,935.1c-21.1,2.2-37.1-17-33.8-37.5
			C416.5,896.4,433.9,914.3,429.4,935.1L429.4,935.1z M443.8,954.9c-14.2,15.8-38.9,12.3-50.2-5.3
			C408.2,934.8,433.2,936.5,443.8,954.9L443.8,954.9z M446.7,952.5c18.4-10.6,20.1-35.6,5.3-50.2
			C434.5,913.6,430.9,938.3,446.7,952.5L446.7,952.5z M471.2,980c-12.5,17.2-37.5,16.2-50.5,0C433.7,963.8,458.7,962.8,471.2,980
			L471.2,980z M473.8,977.4c17.1-12.5,16.2-37.4,0-50.5C457.6,939.9,456.6,964.9,473.8,977.4L473.8,977.4z M501,1002.2
			c-10.6,18.4-35.5,20.1-50.2,5.3C462.1,989.9,486.8,986.4,501,1002.2L501,1002.2z M503.4,999.3c15.8-14.2,12.3-38.9-5.3-50.2
			C483.3,963.8,485,988.7,503.4,999.3L503.4,999.3z M533,1021.1c-8.6,19.4-33.3,23.7-49.4,10.5C493,1013,517.3,1006.9,533,1021.1
			L533,1021.1z M535.1,1018c14.2-15.8,8.1-40-10.5-49.4C511.4,984.7,515.7,1009.3,535.1,1018L535.1,1018z M566.9,1036.6
			c-6.6,20.2-30.6,27-48,15.6C526.3,1032.7,549.7,1024.1,566.9,1036.6L566.9,1036.6z M568.6,1033.2c12.5-17.1,3.9-40.6-15.6-48
			C541.6,1002.6,548.4,1026.7,568.6,1033.2L568.6,1033.2z M602.1,1048.4c-4.4,20.8-27.6,30.1-46.1,20.5
			C561.3,1048.8,583.8,1037.8,602.1,1048.4L602.1,1048.4z M603.5,1044.9c10.6-18.4-0.3-40.8-20.5-46.1
			C573.4,1017.3,582.7,1040.5,603.5,1044.9L603.5,1044.9z M639.4,1052.9c8.6-19.4-4.7-40.5-25.2-43.7
			C606.6,1028.6,618.3,1050.7,639.4,1052.9L639.4,1052.9z"/>
		<path fill-rule="evenodd" clip-rule="evenodd" fill="#FFFFCC" d="M631.9,1056.7c-13.1-3.3-25.9,4.9-30.3,17.5
			C614.7,1076.7,628.1,1069.6,631.9,1056.7L631.9,1056.7z M424.4,925.8c0.5-13.4-10.2-24.4-23.4-26c0.1,7.7,3.4,15.1,9.4,20.2
			C414.4,923.4,419.2,925.4,424.4,925.8L424.4,925.8z M436.2,950.5c-8.7-10.3-23.9-11.3-34.8-3.7
			C410.5,956.5,425.6,958.7,436.2,950.5L436.2,950.5z M447.5,941.3c10.3-8.6,11.3-23.9,3.7-34.8
			C441.4,915.6,439.2,930.7,447.5,941.3L447.5,941.3z M463.6,976.4c-9.7-9.3-24.9-8.8-35,0C438.7,985.1,453.9,985.7,463.6,976.4
			L463.6,976.4z M473.8,931.2c-8.8,10-9.3,25.3,0,35C483.2,956.5,482.6,941.3,473.8,931.2L473.8,931.2z M458.7,1003
			c10.9,7.6,26.1,6.6,34.8-3.6C482.9,991.1,467.8,993.3,458.7,1003L458.7,1003z M499,953.3c-7.6,10.9-6.6,26.1,3.6,34.8
			C510.9,977.5,508.7,962.4,499,953.3L499,953.3z M525.6,1019.1c-11.4-7.1-26.2-3.4-34.2,7.3
			C503.1,1032.8,518.1,1030.2,525.6,1019.1L525.6,1019.1z M526.3,972.7c-6.5,11.7-3.9,26.7,7.3,34.2
			C540.6,995.5,536.9,980.7,526.3,972.7L526.3,972.7z M559.6,1035.3c-12.1-5.9-26.4-0.6-33.2,10.8
			C538.7,1051.3,553.3,1047.2,559.6,1035.3L559.6,1035.3z M555.4,989.1c-5.2,12.3-1.1,26.9,10.8,33.3
			C572.1,1010.3,566.9,996,555.4,989.1L555.4,989.1z M595.2,1047.9c-12.6-4.6-26.3,2.2-31.9,14.2
			C576,1066,590.2,1060.4,595.2,1047.9L595.2,1047.9z M586.2,1002.4c-3.9,12.7,1.8,26.9,14.2,31.9
			C604.9,1021.8,598.2,1008.1,586.2,1002.4L586.2,1002.4z M635.6,1042.7c3.2-13.1-4.9-26-17.5-30.3
			C615.6,1025.5,622.7,1039,635.6,1042.7L635.6,1042.7z"/>
	</g>
</g>
<g>
	<path fill-rule="evenodd" clip-rule="evenodd" fill="#FFFFFF" d="M699.3,1024c20.8,0,37.6,16.8,37.6,37.6s-16.8,37.7-37.6,37.7
		c-20.8,0-37.7-16.9-37.7-37.7S678.4,1024,699.3,1024L699.3,1024z"/>
	<path fill-rule="evenodd" clip-rule="evenodd" fill="#1A8459" d="M699.3,1025.7c19.8,0,35.9,16.1,35.9,35.9
		c0,19.8-16.1,35.9-35.9,35.9c-19.9,0-35.9-16.1-35.9-35.9C663.3,1041.8,679.4,1025.7,699.3,1025.7L699.3,1025.7z"/>
	<path fill-rule="evenodd" clip-rule="evenodd" fill="#FFFFFF" d="M699.3,1029.3c17.9,0,32.3,14.5,32.3,32.3
		c0,17.9-14.5,32.4-32.3,32.4c-17.9,0-32.4-14.5-32.4-32.4C666.9,1043.8,681.4,1029.3,699.3,1029.3L699.3,1029.3z"/>
	<path fill-rule="evenodd" clip-rule="evenodd" fill="#BFBF56" d="M699.3,1029.3c3.6,0,7,0.6,10.3,1.6H689
		C692.2,1029.9,695.7,1029.3,699.3,1029.3L699.3,1029.3z M716.5,1034.3c0.9,0.6,1.9,1.3,2.8,2h-40.1c0.9-0.7,1.8-1.4,2.8-2H716.5z
		 M722.9,1039.6c0.6,0.6,1.2,1.3,1.7,2h-50.6c0.5-0.7,1.1-1.3,1.7-2H722.9z M726.9,1044.9c0.4,0.6,0.7,1.3,1.1,2h-57.5
		c0.4-0.7,0.7-1.3,1.1-2H726.9z M729.5,1050.1c0.2,0.6,0.5,1.3,0.7,2h-61.8c0.2-0.7,0.4-1.3,0.7-2H729.5z M731,1055.4
		c0.1,0.7,0.2,1.3,0.3,2h-64.2c0.1-0.7,0.2-1.3,0.3-2H731z M731.6,1060.7c0,0.4,0,0.7,0,1c0,0.3,0,0.7,0,1h-64.7c0-0.3,0-0.6,0-1
		c0-0.3,0-0.6,0-1H731.6z M731.3,1066c-0.1,0.7-0.2,1.3-0.3,2h-63.5c-0.1-0.6-0.2-1.3-0.3-2H731.3z M730.2,1071.2
		c-0.2,0.7-0.4,1.3-0.7,2H669c-0.2-0.6-0.5-1.3-0.7-2H730.2z M728,1076.5c-0.3,0.7-0.7,1.3-1.1,2h-55.3c-0.4-0.6-0.7-1.3-1.1-2H728z
		 M724.6,1081.8c-0.5,0.7-1.1,1.3-1.7,2h-47.3c-0.6-0.6-1.2-1.3-1.7-2H724.6z M719.3,1087.1c-0.9,0.7-1.8,1.3-2.8,2H682
		c-0.9-0.6-1.9-1.3-2.8-2H719.3z M709.5,1092.4c-3.2,1-6.7,1.6-10.3,1.6c-3.6,0-7.1-0.6-10.3-1.6H709.5z"/>
	<path fill-rule="evenodd" clip-rule="evenodd" fill="#FFFFFF" d="M678.4,1086.4v-1.3l9.4-31.2l2.1-11.9l-9.1-11l4.5-5.5l10.7,12.9
		v-17.4h6.7v17.4l10.7-12.9l4.5,5.5l-9.1,11l2.1,11.9l9.4,31.2v1.3c-5.6,4.8-12.9,7.6-20.9,7.6C691.3,1094,684,1091.2,678.4,1086.4
		L678.4,1086.4z"/>
	<path fill-rule="evenodd" clip-rule="evenodd" fill="#4689CC" d="M700.9,1094v-78.2h-3.3v78.2
		C698.7,1094.1,699.8,1094.1,700.9,1094L700.9,1094z"/>
	<path fill-rule="evenodd" clip-rule="evenodd" fill="#2A67A3" d="M689.4,1054.2l2.3-12.8l-8.7-10.5l2.3-2.8l11.1,13.3v12.8v31.1
		v8.5c-6-0.5-11.6-2.7-16.2-6.2v-2.4L689.4,1054.2z M706.8,1041.4l8.8-10.5l-2.3-2.8l-11.1,13.3v12.8v31.1v8.5
		c6-0.5,11.6-2.7,16.2-6.2v-2.4l-9.3-31.1L706.8,1041.4z"/>
</g>
<g>
	<path fill-rule="evenodd" clip-rule="evenodd" fill="#1A8459" d="M789.4,908.8c4-3.5,9-5.4,14.2-5.6c12.7-0.5,25.1,11.9,17.3,25.3
		c1.7,1.8,3.2,3.8,4.3,6.1c1.2,2.6,1.9,5.3,1.9,8.1c0,5.3-2.4,9.9-6.4,13.3c-6.3,5.3-14.8,7.5-22.7,5.5h-45
		c-1.7,0.5-3.4,0.8-5.1,0.8c-5.2,0-10.2-2.4-14-5.8v5.1h-37.9h-13.6c-1.2,0.3-2.3,0.4-3.5,0.4c-1.2,0-2.4-0.1-3.6-0.4h-38.8
		c-5.4,1.2-10.7,0.9-16.1-0.2l-50,0.2l9.1-14.2v-29.1L568.4,904c21.4,0,27.9,0,49.3,0v1.9c8.9-4.7,15.9-1.4,25-1.8l41-0.1v37.3
		c2,0.7,3.7,1.9,5.1,3.5c2.7,3.3,3,7.9,0.8,11.6l5.3,2.9c-1.4-7.1-1.9-10.7,1.1-17.6v-38.9c11.3,1.6,11.1,0.4,19.8,0.4
		c8.9,0,11.4,1.3,18.1,6c1.8-1.6,3.8-3.1,6.1-4.1c2.5-1.2,5.2-1.9,7.9-1.9c2.8,0,5.4,0.7,7.9,1.9c1.6,0.8,3.2,1.7,4.6,2.9l29-6.6
		V908.8z M678.9,940.5l-5.9-9.3v10.4C674.9,940.8,676.9,940.5,678.9,940.5L678.9,940.5z M648.1,933.1c0.3,0.6,0.6,1.1,0.9,1.7v-3.7
		L648.1,933.1z"/>
	<path fill-rule="evenodd" clip-rule="evenodd" fill="#CCFF66" d="M786.3,903.2c4-3.4,9-5.4,14.2-5.6c12.7-0.5,25.1,11.9,17.3,25.3
		c1.8,1.8,3.2,3.8,4.3,6.1c1.2,2.6,1.9,5.3,1.9,8.1c0,5.3-2.4,9.9-6.4,13.3c-6.3,5.3-14.8,7.5-22.7,5.5h-45
		c-1.7,0.5-3.4,0.8-5.1,0.8c-5.2,0-10.1-2.4-14-5.8v5.1h-37.9h-13.7c-1.2,0.3-2.3,0.4-3.5,0.4c-1.2,0-2.4-0.1-3.6-0.4h-38.8
		c-5.4,1.2-10.7,0.9-16.1-0.2l-50,0.2l9.1-14.2v-29l-10.9-14.2c21.4,0,27.9,0,49.3,0v1.9c8.9-4.7,15.9-1.4,25-1.8l40.9-0.1v37.3
		c2,0.7,3.8,1.9,5.1,3.5c2.7,3.3,3.1,8,0.8,11.6l5.3,2.9c-1.4-7.1-1.9-10.6,1.1-17.6v-38.9c11.3,1.6,11.1,0.5,19.8,0.4
		c8.9,0,11.4,1.3,18.1,6c1.8-1.7,3.9-3.1,6.1-4.2c2.5-1.2,5.2-1.9,7.9-1.9c2.8,0,5.4,0.7,7.9,1.9c1.6,0.8,3.2,1.8,4.6,2.9l29-6.7
		V903.2z M675.9,934.9l-6-9.3V936C671.8,935.2,673.9,934.9,675.9,934.9L675.9,934.9z M645,927.6c0.3,0.6,0.6,1.1,0.9,1.7v-3.7
		L645,927.6z"/>
	<path fill="#1A8459" d="M607,935.7c-0.9,2-2,3.6-3.4,4.9c-1.4,1.3-3,2.2-4.9,2.8c-1.8,0.6-3.9,0.8-6,0.6v-19.2h3.5
		c1.4,0,2.6,0.2,3.6,0.6c1,0.4,1.8,0.9,2.3,1.5c0.6,0.6,1,1.3,1.2,2V917c-0.2,0.7-0.6,1.4-1.2,2c-0.6,0.6-1.3,1.1-2.3,1.5
		c-0.9,0.4-2.1,0.6-3.6,0.6h-3.5v-10.8c1.3,0,2.5,0,3.8,0.1c1.3,0.1,2.5,0.4,3.7,0.8c1.2,0.4,2.4,0.9,3.6,1.7
		c1.2,0.8,2.2,1.8,3.2,3.1v-9.9h-26.7c0.9,0.5,1.7,1.1,2.2,1.6c0.6,0.6,0.9,1.1,1.2,1.6c0.2,0.6,0.3,1,0.3,1.4v32.8
		c0,0.4-0.1,0.9-0.3,1.4c-0.2,0.6-0.6,1.1-1.2,1.7c-0.5,0.6-1.3,1.1-2.2,1.6H607V935.7z M640.2,937.8c0-1.6-0.3-3-0.8-4.4
		c-0.6-1.4-1.3-2.7-2.2-3.9c-0.9-1.2-1.9-2.4-3-3.5c-1.1-1.1-2.3-2.2-3.4-3.2c-0.7-0.6-1.5-1.3-2.3-2c-0.8-0.7-1.7-1.4-2.5-2.2
		c-0.8-0.8-1.5-1.5-2.2-2.3c-0.7-0.8-1.2-1.6-1.5-2.3c-0.2-0.6-0.4-1.1-0.4-1.7c-0.1-0.6,0-1,0.2-1.5c0.2-0.5,0.5-0.8,1.1-1.1
		c0.5-0.3,1.2-0.4,2.1-0.4c1.1,0,2.2,0.3,3.3,0.8c1.1,0.5,2.2,1.2,3.2,2.1c1,0.9,2,1.8,2.9,2.9c0.9,1,1.6,2,2.2,3
		c0.6,1,0.9,1.9,1.2,2.7v-15.5c-0.7,0.6-1.4,1-2,1.2c-0.6,0.2-1.2,0.4-1.7,0.3c-0.5,0-1-0.1-1.5-0.2c-0.5-0.1-1-0.3-1.6-0.5
		c-0.6-0.2-1.3-0.3-2.1-0.5c-0.7-0.1-1.6-0.2-2.6-0.2c-2,0-3.8,0.2-5.4,0.7c-1.5,0.4-2.8,1-3.9,1.7c-1,0.7-1.9,1.5-2.5,2.3
		c-0.6,0.8-1,1.7-1.3,2.6c-0.2,0.9-0.3,1.7-0.2,2.4c0.2,1.3,0.6,2.5,1.3,3.6c0.7,1.1,1.5,2.1,2.6,3.1c1,1,2.1,1.9,3.3,2.9
		s2.3,1.9,3.5,2.9c1.2,1,2.2,2.1,3.2,3.3c1,1.2,1.7,2.4,2.3,3.8c0.6,1.4,0.9,2.9,0.9,4.7c0,1.9-0.4,3.3-1.2,4.3
		c-0.8,0.9-2.1,1.4-3.8,1.4c-1.1,0-2.2-0.4-3.3-1.2c-1-0.8-2.1-1.8-3-3.2c-1-1.3-1.9-2.8-2.7-4.5c-0.8-1.7-1.5-3.5-2.1-5.4
		c-0.6-1.9-1-3.8-1.3-5.7v24.4c0.6-0.5,1.1-0.9,1.6-1.1c0.5-0.2,1.1-0.3,1.6-0.3c0.7,0,1.5,0.1,2.3,0.3c0.9,0.2,1.9,0.4,3.1,0.6
		c1.2,0.2,2.6,0.3,4.3,0.3c1.7,0,3.4-0.1,5.1-0.5c1.7-0.3,3.2-0.9,4.6-1.7c1.3-0.8,2.4-2,3.3-3.4C639.7,942,640.2,940.1,640.2,937.8
		L640.2,937.8z M672.9,906.1h-30v9.9c1-1.5,2-2.7,3.1-3.5c1-0.8,2.2-1.4,3.4-1.7c1.3-0.4,2.6-0.5,4.1-0.5v33.3
		c0,0.4-0.1,0.9-0.3,1.4c-0.2,0.6-0.6,1.1-1.2,1.7c-0.6,0.6-1.3,1.1-2.2,1.6H666c-0.9-0.5-1.7-1-2.2-1.6c-0.5-0.6-0.9-1.1-1.1-1.7
		c-0.2-0.5-0.3-1-0.3-1.4v-33.3c1.5,0,2.9,0.1,4.1,0.5c1.2,0.3,2.4,0.9,3.5,1.7c1,0.8,2.1,2,3,3.5V906.1z M675.7,948.7
		c0.9,0,1.8-0.2,2.5-0.4c0.7-0.3,1.2-0.6,1.6-1.1c0.4-0.5,0.6-1,0.6-1.5c0-0.6-0.2-1.1-0.6-1.6c-0.3-0.5-0.9-0.8-1.6-1.1
		c-0.7-0.3-1.5-0.4-2.5-0.4s-1.8,0.1-2.5,0.4c-0.7,0.2-1.2,0.6-1.6,1.1c-0.4,0.5-0.6,1-0.6,1.6c0,0.6,0.2,1.1,0.6,1.5
		c0.3,0.5,0.9,0.8,1.6,1.1C674,948.5,674.8,948.7,675.7,948.7L675.7,948.7z M723.2,948.3v-12.7c-0.6,1.9-1.5,3.4-2.9,4.7
		c-1.4,1.3-3.1,2.2-5.1,2.8c-2.1,0.6-4.4,0.9-7,0.9c0-1.9,0.4-3.6,1-5.4s1.5-3.4,2.5-5c1-1.6,2.2-3.2,3.5-4.7c1.2-1.5,2.5-3,3.7-4.4
		c1.3-1.4,2.4-2.8,3.4-4.2c0.6-0.8,1.2-1.6,1.7-2.7c0.6-1,1-2.1,1.3-3.2c0.3-1.2,0.4-2.2,0.2-3.3c-0.2-1.1-0.7-2.1-1.5-2.9
		c-0.9-0.9-2.2-1.6-4-2.1c-1.8-0.5-4.2-0.8-7.2-0.8c-1.1,0-2.1,0.1-3,0.3c-0.9,0.2-1.7,0.4-2.5,0.6c-0.7,0.2-1.5,0.4-2.2,0.5
		c-0.7,0.1-1.4,0-2.1-0.2c-0.7-0.2-1.5-0.7-2.4-1.4v18.3c0.3-1.2,0.8-2.5,1.4-3.8s1.2-2.6,1.9-3.7c0.7-1.2,1.5-2.3,2.5-3.3
		c0.9-0.9,1.9-1.7,3-2.3c1.1-0.6,2.2-0.8,3.5-0.8c1.2,0,2.2,0.2,2.8,0.5c0.6,0.3,1,0.8,1.2,1.3c0.2,0.6,0.2,1.2,0.1,1.8
		c-0.1,0.7-0.3,1.3-0.7,1.9c-0.3,0.6-0.6,1.2-0.9,1.6c-0.6,0.8-1.3,1.7-2,2.7c-0.8,0.9-1.6,2-2.5,3c-0.9,1-1.7,2.1-2.6,3.2
		c-0.8,1-1.6,2.1-2.2,3.1c-1.2,1.7-2.2,3.4-3.3,5.1s-1.9,3.3-2.7,5c-0.7,1.6-1.3,3.3-1.6,4.8c-0.3,1.6-0.3,3.2,0,4.7H723.2z
		 M751.3,927.3c0,2.4-0.2,4.6-0.5,6.7c-0.4,2.1-0.8,3.9-1.5,5.5c-0.6,1.6-1.3,2.8-2.1,3.7c-0.8,0.9-1.6,1.3-2.5,1.4
		c-0.8,0-1.7-0.5-2.4-1.4c-0.8-0.9-1.5-2.1-2.1-3.7c-0.6-1.6-1-3.4-1.4-5.5c-0.4-2.1-0.5-4.3-0.5-6.7c0-2.4,0.2-4.7,0.5-6.8
		c0.3-2.1,0.8-3.9,1.4-5.5c0.6-1.6,1.3-2.8,2.1-3.7c0.8-0.9,1.6-1.3,2.4-1.4c0.9,0,1.7,0.5,2.5,1.4c0.8,0.9,1.5,2.1,2.1,3.7
		c0.6,1.6,1.1,3.4,1.5,5.5C751.1,922.6,751.3,924.8,751.3,927.3L751.3,927.3z M761.2,927.3c0-2.4-0.3-4.7-1-6.9
		c-0.6-2.2-1.5-4.2-2.6-6c-1.1-1.8-2.3-3.4-3.7-4.8c-1.4-1.4-2.9-2.4-4.4-3.2c-1.5-0.7-3.1-1.1-4.6-1.1c-1.5,0-3,0.4-4.6,1.1
		c-1.5,0.7-3,1.8-4.4,3.2c-1.4,1.3-2.7,2.9-3.8,4.8c-1.1,1.8-2,3.8-2.6,6c-0.7,2.2-1,4.5-1,6.9c0,2.4,0.3,4.7,1,6.9
		c0.6,2.2,1.5,4.2,2.6,6c1.1,1.8,2.3,3.4,3.7,4.7c1.4,1.3,2.9,2.4,4.4,3.1c1.6,0.7,3.1,1.1,4.7,1.1c1.6,0,3.2-0.4,4.7-1.1
		c1.5-0.7,3-1.8,4.4-3.1c1.4-1.3,2.6-2.9,3.7-4.7c1.1-1.8,1.9-3.8,2.6-6C760.9,932,761.2,929.7,761.2,927.3L761.2,927.3z
		 M769.5,943.6c0,0.4-0.1,0.9-0.4,1.4c-0.2,0.6-0.6,1.1-1.2,1.7c-0.6,0.6-1.3,1.1-2.2,1.6h16.5c-0.9-0.5-1.6-1-2.2-1.6
		c-0.5-0.6-0.9-1.1-1.2-1.7c-0.2-0.5-0.3-1-0.3-1.4v-38.2l-12.9,3c1,0.3,1.8,0.8,2.3,1.4c0.6,0.5,0.9,1.1,1.1,1.7
		c0.2,0.6,0.3,1.2,0.3,1.7V943.6z M805.7,937.1c0.1,1,0,2-0.3,2.9c-0.3,0.9-0.8,1.8-1.6,2.6c-0.8,0.8-1.9,1.4-3.3,2
		c-1.5-0.4-2.8-0.9-3.9-1.5c-1.1-0.7-1.9-1.5-2.5-2.3c-0.6-0.8-0.9-1.7-0.9-2.7c0-1.1,0.1-2.2,0.4-3.4c0.3-1.2,0.8-2.3,1.6-3.5
		c0.7-1.2,1.7-2.3,3-3.4c1.4,0.7,2.6,1.5,3.7,2.6c1,1,2,2.1,2.6,3.2C805.3,934.9,805.6,936,805.7,937.1L805.7,937.1z M803.1,921.1
		c-1.4-0.9-2.5-1.9-3.4-2.9c-0.8-1-1.4-2.1-1.6-3.4c-0.1-1.5,0.2-2.8,0.7-3.7c0.6-1,1.3-1.6,2.3-2c1.6,0.4,2.8,0.9,3.6,1.8
		c0.8,0.8,1.3,1.8,1.4,2.9c0.1,1.1-0.1,2.3-0.6,3.6C805.1,918.6,804.3,919.9,803.1,921.1L803.1,921.1z M812.7,913.5
		c0-0.7-0.2-1.4-0.7-2.2c-0.5-0.8-1-1.5-1.9-2.2c-0.8-0.7-1.7-1.4-2.7-2c-1-0.6-2.1-1-3.2-1.4c-1.2-0.3-2.3-0.5-3.4-0.4
		c-1.4,0-2.7,0.2-3.9,0.6c-1.2,0.4-2.4,0.9-3.4,1.5c-1,0.6-1.9,1.3-2.7,2c-0.8,0.8-1.4,1.5-1.9,2.3c-0.5,0.8-0.8,1.5-1,2.3
		c-0.2,0.9-0.1,1.9,0.2,2.9c0.4,1,0.9,2,1.6,3c0.7,1,1.6,1.9,2.5,2.8c0.9,0.9,1.9,1.6,2.8,2.3c-1,0.6-2.1,1.4-3.3,2.4
		c-1.1,1-2.2,2-3.2,3.2c-1,1.2-1.9,2.4-2.5,3.6c-0.6,1.3-0.9,2.6-0.9,3.8c0,1.3,0.5,2.6,1.3,3.8c0.8,1.3,1.9,2.4,3.4,3.4
		c1.4,1,3.1,1.9,4.9,2.5c1.9,0.6,3.9,1,6,1.2c2.7-0.4,5-1,7-1.8c2-0.8,3.6-1.7,4.9-2.8c1.3-1.1,2.2-2.3,2.8-3.5
		c0.6-1.3,0.9-2.6,0.9-4c0-1.6-0.4-3.2-1.2-4.8c-0.8-1.6-1.9-3.1-3.3-4.5c-1.5-1.4-3.2-2.7-5.3-3.7c2-1.4,3.5-3,4.6-4.8
		C812.2,917.4,812.7,915.5,812.7,913.5L812.7,913.5z"/>
</g>
</svg>
